<svg xmlns="http://www.w3.org/2000/svg" viewBox="0 0 1086.11 136.36"><defs><style>.cls-1{fill:#fcfcfc;}</style></defs><title>Asset 3</title><g id="Layer_2" data-name="Layer 2"><g id="TEXT"><path class="cls-1" d="M403.2,1.12h17.71a30.67,30.67,0,0,1,10.85,1.82A23.25,23.25,0,0,1,440,8.05,22,22,0,0,1,445.09,16a28.15,28.15,0,0,1,1.79,10.22,28.15,28.15,0,0,1-1.79,10.22A22,22,0,0,1,440,44.31a23.25,23.25,0,0,1-8.19,5.11,30.67,30.67,0,0,1-10.85,1.82H403.2Zm17.15,39.76a20.35,20.35,0,0,0,7-1.08,13,13,0,0,0,4.86-3,12.19,12.19,0,0,0,2.84-4.65,18.61,18.61,0,0,0,.91-5.92,18.5,18.5,0,0,0-.91-5.91,12.16,12.16,0,0,0-2.84-4.66,12.87,12.87,0,0,0-4.86-3,20.1,20.1,0,0,0-7-1.09h-6.23v29.4Z"/><path class="cls-1" d="M465.42,11.48V21H485.3V31.36H465.42v9.52h22.12V51.24h-33V1.12h33V11.48Z"/><path class="cls-1" d="M496.22,51.24V1.12h17.92a20.64,20.64,0,0,1,7.11,1.19,16.91,16.91,0,0,1,5.63,3.33,14.72,14.72,0,0,1,3.71,5.14,16.22,16.22,0,0,1,1.33,6.65,16.22,16.22,0,0,1-1.33,6.65,14.85,14.85,0,0,1-3.71,5.15,17.05,17.05,0,0,1-5.63,3.32,20.64,20.64,0,0,1-7.11,1.19h-7v17.5Zm18.27-27.86a7,7,0,0,0,5.11-1.68,5.78,5.78,0,0,0,1.68-4.27,5.78,5.78,0,0,0-1.68-4.27,7,7,0,0,0-5.11-1.68h-7.35v11.9Z"/><path class="cls-1" d="M549.28,51.24V11.48h-14V1.12H574.2V11.48h-14V51.24Z"/><path class="cls-1" d="M618.86,52.36a26.88,26.88,0,0,1-10.5-2,25.42,25.42,0,0,1-13.89-13.86,26.33,26.33,0,0,1-2-10.29,26.33,26.33,0,0,1,2-10.29A25.51,25.51,0,0,1,608.36,2a28.17,28.17,0,0,1,21,0,25.48,25.48,0,0,1,13.9,13.86,26.32,26.32,0,0,1,2,10.29,26.32,26.32,0,0,1-2,10.29,25.4,25.4,0,0,1-13.9,13.86A26.88,26.88,0,0,1,618.86,52.36Zm0-10.36a16.28,16.28,0,0,0,6.06-1.12,14.38,14.38,0,0,0,4.93-3.22,15.06,15.06,0,0,0,3.29-5,16.85,16.85,0,0,0,1.19-6.48,16.76,16.76,0,0,0-1.19-6.47,15,15,0,0,0-3.29-5,14.38,14.38,0,0,0-4.93-3.22,17,17,0,0,0-12.15,0,14.55,14.55,0,0,0-4.9,3.22,15.15,15.15,0,0,0-3.29,5,17,17,0,0,0-1.19,6.47,17,17,0,0,0,1.19,6.48,15.21,15.21,0,0,0,3.29,5,14.55,14.55,0,0,0,4.9,3.22A16.21,16.21,0,0,0,618.86,42Z"/><path class="cls-1" d="M652.88,1.12h33V11.48H663.8V21.56h19.88V31.92H663.8V51.24H652.88Z"/><path class="cls-1" d="M46.48,127.12a24.9,24.9,0,0,1-20.09,9.24,26.71,26.71,0,0,1-10.43-2A26.16,26.16,0,0,1,16,86a26.71,26.71,0,0,1,10.43-2,25,25,0,0,1,10.67,2.1,26.31,26.31,0,0,1,8.23,6.09l-7.63,7.42A17.24,17.24,0,0,0,33,95.87a13.22,13.22,0,0,0-6.51-1.51,16.53,16.53,0,0,0-6.13,1.12A14.48,14.48,0,0,0,15.4,98.7a15,15,0,0,0-3.29,5,18.21,18.21,0,0,0,0,13,15.06,15.06,0,0,0,3.29,5,14.48,14.48,0,0,0,4.93,3.22A16.53,16.53,0,0,0,26.46,126a14.25,14.25,0,0,0,6.93-1.61,17.53,17.53,0,0,0,5.32-4.62Z"/><path class="cls-1" d="M77.28,136.36a26.88,26.88,0,0,1-10.5-2,25.42,25.42,0,0,1-13.89-13.86,27.47,27.47,0,0,1,0-20.58A25.51,25.51,0,0,1,66.78,86a28.17,28.17,0,0,1,21,0,25.48,25.48,0,0,1,13.9,13.86,27.6,27.6,0,0,1,0,20.58,25.4,25.4,0,0,1-13.9,13.86A26.88,26.88,0,0,1,77.28,136.36Zm0-10.36a16.28,16.28,0,0,0,6.06-1.12,14.38,14.38,0,0,0,4.93-3.22,15.06,15.06,0,0,0,3.29-5,18.21,18.21,0,0,0,0-13,15,15,0,0,0-3.29-5,14.38,14.38,0,0,0-4.93-3.22,17,17,0,0,0-12.15,0,14.45,14.45,0,0,0-4.9,3.22,15,15,0,0,0-3.29,5,18.21,18.21,0,0,0,0,13,15.06,15.06,0,0,0,3.29,5,14.45,14.45,0,0,0,4.9,3.22A16.21,16.21,0,0,0,77.28,126Z"/><path class="cls-1" d="M111.3,85.12h10.78l14.28,24.5h.7l14.28-24.5h10.78v50.12H151.34V113.05l.7-8.4h-.7L139.93,124.6h-6.44l-11.41-19.95h-.7l.7,8.4v22.19H111.3Z"/><path class="cls-1" d="M172.2,135.24V85.12h17.92a20.58,20.58,0,0,1,7.1,1.19,17.05,17.05,0,0,1,5.64,3.33,14.84,14.84,0,0,1,3.71,5.14,17.29,17.29,0,0,1,0,13.3,15,15,0,0,1-3.71,5.15,17.2,17.2,0,0,1-5.64,3.32,20.58,20.58,0,0,1-7.1,1.19h-7v17.5Zm18.27-27.86a7,7,0,0,0,5.11-1.68,6.27,6.27,0,0,0,0-8.54,7,7,0,0,0-5.11-1.68h-7.35v11.9Z"/><path class="cls-1" d="M233.45,136.36a22.83,22.83,0,0,1-8.26-1.43,16.52,16.52,0,0,1-6.3-4.24,19.12,19.12,0,0,1-4-6.82,27.85,27.85,0,0,1-1.4-9.21V85.12h10.92v30.24a12.18,12.18,0,0,0,2.31,7.63,9,9,0,0,0,13.44,0,12.18,12.18,0,0,0,2.31-7.63V85.12H253.4v29.54a26.37,26.37,0,0,1-1.4,8.75,20.15,20.15,0,0,1-4,6.86,18.1,18.1,0,0,1-6.3,4.48A20.63,20.63,0,0,1,233.45,136.36Z"/><path class="cls-1" d="M273,135.24V95.48H259V85.12h38.92V95.48h-14v39.76Z"/><path class="cls-1" d="M315.56,95.48V105h19.88v10.36H315.56v9.52h22.12v10.36h-33V85.12h33V95.48Z"/><path class="cls-1" d="M346.36,85.12h18.9a20.32,20.32,0,0,1,7.28,1.23A15.33,15.33,0,0,1,378,89.74a14.47,14.47,0,0,1,3.36,5.15,17.71,17.71,0,0,1,1.16,6.47,12.55,12.55,0,0,1-.81,4.55,15.63,15.63,0,0,1-2.17,3.89,16.36,16.36,0,0,1-3.18,3.15,19.62,19.62,0,0,1-3.92,2.27v.63l13.09,18.69v.7H373l-12.67-18.06h-3.08v18.06H346.36Zm18.9,22a6.18,6.18,0,0,0,4.62-1.71,5.84,5.84,0,0,0,1.68-4.24,5.7,5.7,0,0,0-6.3-6h-8v11.9Z"/><path class="cls-1" d="M420.42,136.36a19.1,19.1,0,0,1-19.25-14.49l10.29-4.06a13.45,13.45,0,0,0,3,5.88,7.65,7.65,0,0,0,6,2.31,10.06,10.06,0,0,0,2.41-.28,6.33,6.33,0,0,0,2-.87,4.91,4.91,0,0,0,1.43-1.51,3.88,3.88,0,0,0,.56-2.1,5,5,0,0,0-2-4.09,14.45,14.45,0,0,0-2.81-1.75,41.42,41.42,0,0,0-4.4-1.86l-3.09-1.12a24.31,24.31,0,0,1-4-1.92,17.88,17.88,0,0,1-3.75-3,14.72,14.72,0,0,1-2.73-4,12,12,0,0,1-1.05-5.08,13.76,13.76,0,0,1,1.19-5.67,13.5,13.5,0,0,1,3.36-4.58,16.12,16.12,0,0,1,5.25-3,21.86,21.86,0,0,1,13.51-.1,16.42,16.42,0,0,1,4.77,2.59,13.05,13.05,0,0,1,3.11,3.53A21.25,21.25,0,0,1,436,94.92l-9.45,4a7.82,7.82,0,0,0-2.44-3.6,6.7,6.7,0,0,0-4.35-1.37,7.61,7.61,0,0,0-4.44,1.16,3.49,3.49,0,0,0-1.65,3,4.36,4.36,0,0,0,1.69,3.36,18.65,18.65,0,0,0,5.94,2.94l3.08,1a24.25,24.25,0,0,1,9.87,5.81q3.51,3.64,3.5,9.8a13.9,13.9,0,0,1-1.57,6.79,14.89,14.89,0,0,1-4.06,4.76,17.62,17.62,0,0,1-5.6,2.84A21,21,0,0,1,420.42,136.36Z"/><path class="cls-1" d="M489.57,127.12a24.89,24.89,0,0,1-20.09,9.24,26.71,26.71,0,0,1-10.43-2,26.16,26.16,0,0,1,0-48.3,26.71,26.71,0,0,1,10.43-2,25.12,25.12,0,0,1,10.68,2.1,26.39,26.39,0,0,1,8.22,6.09l-7.63,7.42a17.09,17.09,0,0,0-4.69-3.74,13.19,13.19,0,0,0-6.51-1.51,16.44,16.44,0,0,0-6.12,1.12,14.38,14.38,0,0,0-4.93,3.22,14.85,14.85,0,0,0-3.29,5,18.07,18.07,0,0,0,0,13,14.91,14.91,0,0,0,3.29,5,14.38,14.38,0,0,0,4.93,3.22,16.44,16.44,0,0,0,6.12,1.12,14.25,14.25,0,0,0,6.93-1.61,17.42,17.42,0,0,0,5.32-4.62Z"/><path class="cls-1" d="M497.13,85.12h10.92v50.12H497.13Z"/><path class="cls-1" d="M529.05,95.48V105h19.88v10.36H529.05v9.52h22.12v10.36h-33V85.12h33V95.48Z"/><path class="cls-1" d="M559.85,85.12h12.6l18.06,30.94h.7l-.7-9.66V85.12h10.78v50.12H589.81l-19.18-32.76h-.7l.7,9.66v23.1H559.85Z"/><path class="cls-1" d="M654.7,127.12a24.9,24.9,0,0,1-20.09,9.24,26.71,26.71,0,0,1-10.43-2,25.81,25.81,0,0,1-8.36-5.56,26.37,26.37,0,0,1,0-37.17A25.67,25.67,0,0,1,624.18,86a26.71,26.71,0,0,1,10.43-2,25.12,25.12,0,0,1,10.68,2.1,26.39,26.39,0,0,1,8.22,6.09l-7.63,7.42a17.09,17.09,0,0,0-4.69-3.74,13.22,13.22,0,0,0-6.51-1.51,16.44,16.44,0,0,0-6.12,1.12,14.42,14.42,0,0,0-4.94,3.22,15.15,15.15,0,0,0-3.29,5,18.21,18.21,0,0,0,0,13,15.21,15.21,0,0,0,3.29,5,14.42,14.42,0,0,0,4.94,3.22,16.44,16.44,0,0,0,6.12,1.12,14.25,14.25,0,0,0,6.93-1.61,17.42,17.42,0,0,0,5.32-4.62Z"/><path class="cls-1" d="M673.18,95.48V105h19.88v10.36H673.18v9.52H695.3v10.36h-33V85.12h33V95.48Z"/><path class="cls-1" d="M731.84,85.12h12.6l18.76,50.12h-12L747.31,124H729l-3.85,11.2h-12Zm12,29-3.64-10.5-1.68-6.16h-.7l-1.68,6.16-3.64,10.5Z"/><path class="cls-1" d="M769.08,85.12h12.6l18.06,30.94h.7l-.7-9.66V85.12h10.78v50.12H799l-19.18-32.76h-.7l.7,9.66v23.1H769.08Z"/><path class="cls-1" d="M820.6,85.12h17.71a30.67,30.67,0,0,1,10.85,1.82,23.25,23.25,0,0,1,8.19,5.11A22,22,0,0,1,862.5,100a30.23,30.23,0,0,1,0,20.44,22,22,0,0,1-5.15,7.91,23.25,23.25,0,0,1-8.19,5.11,30.67,30.67,0,0,1-10.85,1.82H820.6Zm17.15,39.76a20.31,20.31,0,0,0,7-1.08,13.14,13.14,0,0,0,4.87-3,12.17,12.17,0,0,0,2.83-4.65,19.68,19.68,0,0,0,0-11.83,12.13,12.13,0,0,0-2.83-4.66,13,13,0,0,0-4.87-3,20.06,20.06,0,0,0-7-1.09h-6.23v29.4Z"/><path class="cls-1" d="M898.23,95.48V105h19.88v10.36H898.23v9.52h22.12v10.36h-33V85.12h33V95.48Z"/><path class="cls-1" d="M929,85.12h12.6l18.06,30.94h.7l-.7-9.66V85.12h10.78v50.12H959l-19.18-32.76h-.7l.7,9.66v23.1H929Z"/><path class="cls-1" d="M1003.79,107.38h24.71a18.5,18.5,0,0,1,.38,2.17,18.9,18.9,0,0,1,.18,2.52,27.06,27.06,0,0,1-1.54,9.45,21.71,21.71,0,0,1-4.48,7.28,23.48,23.48,0,0,1-8.12,5.57,27.88,27.88,0,0,1-10.85,2,27.35,27.35,0,0,1-10.33-2,26.62,26.62,0,0,1-8.5-5.42,25.27,25.27,0,0,1-5.74-8.26,27.48,27.48,0,0,1,0-21.07,25.16,25.16,0,0,1,5.74-8.26,26.64,26.64,0,0,1,8.5-5.43,27.35,27.35,0,0,1,10.33-2,26.31,26.31,0,0,1,11.09,2.17,26.62,26.62,0,0,1,8.3,6L1016,99.4a18.49,18.49,0,0,0-5.22-3.74,16.1,16.1,0,0,0-6.89-1.3,15.91,15.91,0,0,0-6.06,1.16,15.48,15.48,0,0,0-5,3.22,14.85,14.85,0,0,0-3.36,5,17.79,17.79,0,0,0,0,13,14.71,14.71,0,0,0,3.4,5,15.75,15.75,0,0,0,5,3.22,16.3,16.3,0,0,0,6.16,1.15q6.43,0,10.29-3.43a12.35,12.35,0,0,0,2.2-2.62,15.2,15.2,0,0,0,1.65-3.47h-14.49Z"/><path class="cls-1" d="M1060.84,107.38h24.71a18.5,18.5,0,0,1,.38,2.17,18.9,18.9,0,0,1,.18,2.52,27.06,27.06,0,0,1-1.54,9.45,21.71,21.71,0,0,1-4.48,7.28,23.48,23.48,0,0,1-8.12,5.57,27.88,27.88,0,0,1-10.85,2,27.35,27.35,0,0,1-10.33-2,26.62,26.62,0,0,1-8.5-5.42,25.27,25.27,0,0,1-5.74-8.26,27.48,27.48,0,0,1,0-21.07,25.16,25.16,0,0,1,5.74-8.26,26.64,26.64,0,0,1,8.5-5.43,27.35,27.35,0,0,1,10.33-2,26.31,26.31,0,0,1,11.09,2.17,26.62,26.62,0,0,1,8.3,6l-7.42,7.28a18.49,18.49,0,0,0-5.22-3.74,16.1,16.1,0,0,0-6.89-1.3,15.91,15.91,0,0,0-6.06,1.16,15.48,15.48,0,0,0-5,3.22,14.85,14.85,0,0,0-3.36,5,17.79,17.79,0,0,0,0,13,14.71,14.71,0,0,0,3.4,5,15.75,15.75,0,0,0,5,3.22,16.3,16.3,0,0,0,6.16,1.15q6.43,0,10.29-3.43a12.35,12.35,0,0,0,2.2-2.62,15.2,15.2,0,0,0,1.65-3.47h-14.49Z"/></g></g></svg>