<svg xmlns="http://www.w3.org/2000/svg" viewBox="0 0 914.93 619.24"><defs><style>.cls-1{fill:#fff;}.cls-2{fill:#309e48;}</style></defs><title>Asset 1</title><g id="Layer_2" data-name="Layer 2"><g id="TEXT"><path class="cls-1" d="M431.5,188.86l-.36-.18a10.46,10.46,0,0,1-5.12-3.5,16.22,16.22,0,0,1-2.78-5.48,24.72,24.72,0,0,1-1-6.37,40.92,40.92,0,0,1,.27-6.19,52.61,52.61,0,0,1,2-9,61.89,61.89,0,0,1,5.2-11.5,177.37,177.37,0,0,1,10.42-15.44,91,91,0,0,1,12.75-13.65c1.32-1.19,2.69-2.33,4.13-3.41s2.93-2.15,4.49-3.23c2.27-1.44,4.58-2.81,6.91-4.13a50,50,0,0,1,7.45-3.41c2.16-.84,4.34-1.68,6.56-2.52a19.31,19.31,0,0,1,6.91-1.26c1.08.12,2.19.25,3.32.36a16.34,16.34,0,0,1,3.33.72,5.21,5.21,0,0,1,3.5,2.88,23.7,23.7,0,0,0,2.42,4.13q-.18-.36.81-1.89a15.68,15.68,0,0,1,1.35-1.89,6.61,6.61,0,0,1,3.23-2.69,14.13,14.13,0,0,1,6-.9,56.38,56.38,0,0,0,6.37,0,7.09,7.09,0,0,0,2.87-.63,3,3,0,0,1,2.88.27,2.17,2.17,0,0,1,1.08,1.44,2.93,2.93,0,0,1-.18,1.71,19.11,19.11,0,0,1-.9,1.7q-.54.9-.9,1.44-5.57,8.26-10.42,16.79t-9.87,17.15l-2.88,5c-1,1.67-2,3.35-3.05,5q-3.23,5.2-6.82,10.77a36.79,36.79,0,0,0-5,11.85,8,8,0,0,0-.36,2.52,2.29,2.29,0,0,0,1.44,2.15,3.26,3.26,0,0,0,2.51.09,10.73,10.73,0,0,0,2.87-1.44,30,30,0,0,0,2.7-2.06c.83-.72,1.49-1.26,2-1.62q4-3.77,7.54-7.54t7.19-7.9q3-3.59,5.92-7.19a84.13,84.13,0,0,0,5.39-7.54c.24-.36.57-.86,1-1.52a6.33,6.33,0,0,1,1.44-1.62,3.2,3.2,0,0,1,1.61-.72q.81-.09,1.53,1a2.32,2.32,0,0,1,.27,1.88,7.12,7.12,0,0,1-.9,2,14.08,14.08,0,0,1-1.35,1.8c-.48.54-.89,1-1.25,1.34q-1.8,2.16-3.42,4.49a39.9,39.9,0,0,1-3.59,4.49c-.84,1.2-1.7,2.34-2.6,3.41s-1.83,2.16-2.78,3.24q-3.24,3.76-6.56,7.45t-6.73,7.27a67.58,67.58,0,0,1-5.84,5.48,34.86,34.86,0,0,1-7.45,4.85,20.38,20.38,0,0,1-7.9,2.06,9.31,9.31,0,0,1-7.19-3.05,12.77,12.77,0,0,1-3.86-7,19.28,19.28,0,0,1,.09-8.08l.72-1.8a3.11,3.11,0,0,0,.18-1.8,3,3,0,0,0-1.7,1.17q-.81,1-1.53,1.71a35,35,0,0,0-2.61,2.51c-.78.84-1.59,1.74-2.42,2.69a52.3,52.3,0,0,1-12.57,9.88,30.28,30.28,0,0,1-8.08,3.32A16.82,16.82,0,0,1,431.5,188.86ZM448,176.29a33.84,33.84,0,0,0,8.71-6,89.58,89.58,0,0,0,7.27-7.81q5.75-7.18,11-14.64a179,179,0,0,0,9.69-15.53c1.32-2.4,2.64-4.79,4-7.19a53.08,53.08,0,0,0,3.42-7.54,40,40,0,0,0,1.16-5A6.1,6.1,0,0,0,492,107.7a4.81,4.81,0,0,0-5.21-1.8,21.6,21.6,0,0,0-5.57,2,39.84,39.84,0,0,0-11.58,9.87Q464.54,124,460.23,130c-1.68,2.16-3.23,4.37-4.67,6.65s-2.93,4.55-4.49,6.82-3,4.61-4.31,7-2.63,4.84-3.95,7.36c-.48,1.07-1.05,2.27-1.7,3.59a31.42,31.42,0,0,0-1.71,4.13,22.54,22.54,0,0,0-1,4.22,6.52,6.52,0,0,0,.63,3.86c1,2,2.21,3.2,3.77,3.5A8.8,8.8,0,0,0,448,176.29Z"/><path class="cls-1" d="M832.49,100.33a5.12,5.12,0,0,1,3.23.54c.72.48,1.08,1.5,1.08,3a16.28,16.28,0,0,1-.81,5,15.61,15.61,0,0,1-2.24,4.49c-1.2,1.92-2.37,3.77-3.5,5.57s-2.31,3.65-3.5,5.56l-7,11.86-6.1,10.41q-3.06,5.22-6.29,10.42-3.23,4.85-6.55,9.7t-6.2,10q-2.52,4.32-4.85,8.62t-4.85,8.44q-4.49,7-9.43,13.74a107.3,107.3,0,0,1-10.68,12.48A93.32,93.32,0,0,1,752.4,230.7a71.9,71.9,0,0,1-14.73,7.91q-5.2,2-10.59,3.41A66.4,66.4,0,0,1,716,244a54.71,54.71,0,0,1-5.48.45,36.11,36.11,0,0,1-5.66-.27c-.24,0-.95-.09-2.15-.27s-2.43-.39-3.68-.62-2.4-.52-3.42-.81-1.52-.63-1.52-1v.36a10.48,10.48,0,0,1-4.4-3.05,24.7,24.7,0,0,1-3.15-4.49,10.78,10.78,0,0,1-1.07-6.74,14.1,14.1,0,0,1,2.69-6.55,12,12,0,0,1,5.39-4.13,8.11,8.11,0,0,1,6.82.54,9.4,9.4,0,0,1,3.95,3.59,6.52,6.52,0,0,1,.72,5.21,11.53,11.53,0,0,1-2,4.31,5.41,5.41,0,0,0-1.08,4.49q.72,2.86,4.13,3.59a29.39,29.39,0,0,0,5.74.72,25.74,25.74,0,0,0,7.28-1.08,34.81,34.81,0,0,0,7.09-3,52,52,0,0,0,6.47-4.21c2-1.56,3.89-3.12,5.56-4.67q2-1.8,3.77-3.69t3.42-3.86q4.67-5.57,8.8-11.31t8.26-11.67q2.68-4.14,5.47-8.17a36.19,36.19,0,0,0,4.4-8.71q0-.18.18-1.35t0-1a20.53,20.53,0,0,0-5.57,5,18.61,18.61,0,0,1-5.92,5,30,30,0,0,1-9.34,3,21.78,21.78,0,0,1-9.88-.63,8.54,8.54,0,0,1-4.13-2.51,12.07,12.07,0,0,1-2.42-4.13,18.75,18.75,0,0,1-1-4.85,32.71,32.71,0,0,1,0-4.85,24.28,24.28,0,0,1,1.8-7.18,60.23,60.23,0,0,1,3.41-6.82c2.16-4,4.49-7.84,7-11.68L754,135.53q3.76-5.75,7.36-11.58T768,111.83a26.69,26.69,0,0,0,1.26-3.51,32.26,32.26,0,0,1,1.26-3.59,9.08,9.08,0,0,1,2-3,6.11,6.11,0,0,1,3.41-1.62,17,17,0,0,1,4.94,0,22.57,22.57,0,0,0,4.94.18,13.52,13.52,0,0,1,4.31,0c1.32.24,2.21,1.2,2.69,2.88a6.67,6.67,0,0,1-.62,5.56q-1.53,2.52-3,5-4.49,7.19-9,14.28t-8.8,14.45c-1.55,2.4-3,4.82-4.49,7.28s-2.87,4.88-4.3,7.27q-2,3.06-4,6.1a29.32,29.32,0,0,0-3.32,6.65,8.11,8.11,0,0,0-.72,4.49,3.7,3.7,0,0,0,1.71,2.6,6,6,0,0,0,3.41.72,10.37,10.37,0,0,0,4.22-1.17,29.07,29.07,0,0,0,8.89-6.91q3.86-4.4,7.45-8.53c1.68-2,3.35-4.25,5-6.64q4.13-5.92,8.17-12T801.24,130q3.6-5.93,7.1-12A48.4,48.4,0,0,0,813.46,105a5.08,5.08,0,0,1,2.15-3.14,9.1,9.1,0,0,1,3.77-1c2.16-.12,4.31-.18,6.47-.18A63.25,63.25,0,0,0,832.49,100.33Z"/><path class="cls-1" d="M57.51,427.29a52.51,52.51,0,0,1-17.74-6.75,82,82,0,0,1-9.43-7.18,46.23,46.23,0,0,1-7.74-8.59A70.52,70.52,0,0,1,9.51,368.32a120.44,120.44,0,0,1,3.94-39.13,178,178,0,0,1,14.92-37.87A297.72,297.72,0,0,1,48.5,258.38a326.07,326.07,0,0,1,33.22-39.27,251.1,251.1,0,0,1,39.69-32.51q6.48-4.23,13.23-7.88a77.6,77.6,0,0,1,14.08-5.92c2.06-.74,3.75-.56,5.06.57s1.51,2.53.57,4.22a1.62,1.62,0,0,0-.57,1.13,116.26,116.26,0,0,0,13.66-10.42,97.77,97.77,0,0,1,13.65-10.14A124.3,124.3,0,0,1,194.32,152a71.44,71.44,0,0,1,14.36-4.08,57.61,57.61,0,0,1,14.5-.7,40.63,40.63,0,0,1,13.93,3.66,34.15,34.15,0,0,1,11.54,8.72,41.63,41.63,0,0,1,7,12,52.81,52.81,0,0,1,3.24,13.79,80.5,80.5,0,0,1,.14,14.22,184.18,184.18,0,0,1-9.15,46,440.17,440.17,0,0,1-17.31,43.49,197.08,197.08,0,0,1-17,29.7q-9.72,13.94-19.57,28a269.06,269.06,0,0,1-35.47,40.4,165.3,165.3,0,0,1-44.2,30,133.37,133.37,0,0,1-28.43,9.29A79.39,79.39,0,0,1,57.51,427.29Zm51.79-31q3.11-.85,5.92-1.69c1.87-.57,3.66-1.13,5.35-1.69A87.21,87.21,0,0,0,142,381.55a174.79,174.79,0,0,0,18.58-15.63q4.78-5.07,9.43-10.27t9.43-10.84a243.66,243.66,0,0,0,25.76-36.88,264.76,264.76,0,0,0,18.72-41.1q4.23-12.1,7.32-24.77a132.53,132.53,0,0,0,3.66-25.62,98.77,98.77,0,0,0-1.55-19.85,35.53,35.53,0,0,0-8.3-17.87,29.22,29.22,0,0,0-9-6.48,33,33,0,0,0-10.14-3.1,42.16,42.16,0,0,0-25.19,4.37,93.85,93.85,0,0,0-21.26,15.06,63.51,63.51,0,0,0-14.63,19.14,175,175,0,0,0-9,22.52,132.36,132.36,0,0,0-4.23,15.07,48.8,48.8,0,0,0-.84,15.62,33.68,33.68,0,0,0,5.91,16.33,29.25,29.25,0,0,0,13.51,10.69,26.83,26.83,0,0,0,14.78,2,47.19,47.19,0,0,0,14.22-4.5,33,33,0,0,0,4.93-3.38q3.22-2.53,6.75-5.07a56.5,56.5,0,0,1,6.76-4.22c2.16-1.12,3.89-1.41,5.21-.84,2.43,1.12,3.28,2.63,2.53,4.5a17,17,0,0,1-4.22,5.77,51.3,51.3,0,0,1-6.62,5.35,38.87,38.87,0,0,0-4.36,3.24,119.21,119.21,0,0,1-18.16,11.4,72.24,72.24,0,0,1-21.53,7.32,47,47,0,0,1-21.12-1.13q-10.12-3-16.89-13.93a47.44,47.44,0,0,1-6.9-17.88,59.69,59.69,0,0,1-.14-18.72,85.28,85.28,0,0,1,4.93-18.3,119.84,119.84,0,0,1,8.31-17.17q3.09-4.78,6.19-9.15t6.19-8.87q3.38-4.79,7-9.14t7.6-8.31a25.82,25.82,0,0,0,1.69-2,6.71,6.71,0,0,1,1.69-1.69,41.08,41.08,0,0,0-9.57,4.64,72.52,72.52,0,0,0-8.59,6.62,100.93,100.93,0,0,0-7.74,7.74c-2.44,2.72-4.88,5.31-7.32,7.74q-8.16,8.44-15.62,17.46T85.94,246.28q-3.66,5.63-7,11.12t-6.47,11.4q-3.11,5.64-5.77,11.4t-4.93,12a243.39,243.39,0,0,0-8.17,26.88,142.65,142.65,0,0,0-3.94,27.73,60.44,60.44,0,0,0,1.13,16.61q3.38,20.83,24.77,31.25a40.16,40.16,0,0,0,16.33,3.52A71.92,71.92,0,0,0,109.3,396.33Z"/><path class="cls-1" d="M284.36,432.08a38.48,38.48,0,0,1-6.62-1.13,13.26,13.26,0,0,1-5.49-2.81,17.27,17.27,0,0,1-4.93-7.32,24.36,24.36,0,0,1-1.12-8.31,33,33,0,0,1,1.41-8.58,76.76,76.76,0,0,1,2.95-8.17,161.29,161.29,0,0,1,10.84-19.84q6.06-9.44,12.53-18.72l7.32-11.27q3.64-5.62,7.32-11.26,1.68-2.52,4.22-5.63c1.69-2.06,3.28-4.22,4.79-6.47a27.5,27.5,0,0,0,3.37-6.9,8.9,8.9,0,0,0-.28-6.61,4.42,4.42,0,0,0-4.08-2.82,14.22,14.22,0,0,0-5.63,1.27,31.89,31.89,0,0,0-5.77,3.24c-1.88,1.31-3.2,2.25-3.94,2.81a78.35,78.35,0,0,0-9.86,8.59q-4.5,4.64-8.72,9.43l-9.29,11a161.69,161.69,0,0,0-17.32,23.78q-7.45,12.54-15.62,25.2-5.35,8.16-10.7,16t-11,15.48a14.57,14.57,0,0,1-3.38,3.8,9,9,0,0,1-4.78,1.83,36.29,36.29,0,0,1-5.49.14c-1.79-.1-3.62-.14-5.49-.14-6,0-9.81,0-11.4-.14a7.18,7.18,0,0,1-3.24-.7,6.32,6.32,0,0,1-1.27-4.51,8.66,8.66,0,0,1,2.4-5.35A149.79,149.79,0,0,0,202,395.06q6.9-12.26,14.5-24.07,4.5-7.32,8.73-14.36T234,342.56q4.5-6.48,8.58-13.37t8.59-13.66q1.4-2.25,2.81-4.64A25.62,25.62,0,0,0,256.2,306a21.36,21.36,0,0,0,.85-4.5,24.9,24.9,0,0,1,1.12-5.35,13.07,13.07,0,0,1,2.26-4.23c.94-1.12,2.43-1.4,4.5-.84a6.37,6.37,0,0,0,2.39.28,32.93,32.93,0,0,0,4.09-.28c3.94-.37,7.13-.66,9.57-.84s4.31-.29,5.63-.29a6.75,6.75,0,0,1,2.81.43,5.41,5.41,0,0,1,1.41,1q5.34,5.91-2,18.86a18.53,18.53,0,0,0-1.13,2.11,13,13,0,0,1-.56,1.27l-.28.56a8.79,8.79,0,0,1,3.24-3.23,23.43,23.43,0,0,0,3.8-3q2.25-1.68,4.22-3.24a48.41,48.41,0,0,1,4.22-2.95,100.67,100.67,0,0,1,11.55-6.48A57,57,0,0,1,326.3,291a31.81,31.81,0,0,1,9-.42,27.44,27.44,0,0,1,8.87,2.25,18.9,18.9,0,0,1,6.9,5.21,14.46,14.46,0,0,1,3.09,8.73,40.07,40.07,0,0,1-3.23,18.57,92.83,92.83,0,0,1-9.15,16.33q-5.93,8.44-12,16.75t-11.68,16.75a193.5,193.5,0,0,0-14.36,23.65,20.57,20.57,0,0,1-1.83,3.38,22.18,22.18,0,0,0-2.11,4.22,12.11,12.11,0,0,0-.84,4.22,3.53,3.53,0,0,0,1.68,3.1c2.07,1.31,4.55,1.41,7.46.28s5.3-2.16,7.18-3.1a57.53,57.53,0,0,0,15.91-13.23q6.9-8.16,13.37-16a77,77,0,0,0,5.63-6.9q2.53-3.53,5.07-7.46a87.62,87.62,0,0,0,4.64-7.46,31.15,31.15,0,0,1,5.21-6.9,8.88,8.88,0,0,1,3.66-2.11,2.59,2.59,0,0,1,3.38,1.55,8.56,8.56,0,0,1,.56,6,21.17,21.17,0,0,1-2.81,5.91,64.11,64.11,0,0,1-4.23,5.63q-2.25,2.69-3.94,4.65-9.28,10.69-18.44,21.82a146,146,0,0,1-20.12,20.12,84.94,84.94,0,0,1-18.16,11.27A43.14,43.14,0,0,1,284.36,432.08Z"/><path class="cls-1" d="M379,427.86l-.56-.29a16.38,16.38,0,0,1-8-5.49,25.59,25.59,0,0,1-4.36-8.58,38.76,38.76,0,0,1-1.55-10,63.07,63.07,0,0,1,.42-9.71,83.8,83.8,0,0,1,3.1-14.07,96.86,96.86,0,0,1,8.16-18,274.68,274.68,0,0,1,16.33-24.21,143.81,143.81,0,0,1,20-21.4c2.06-1.87,4.22-3.66,6.47-5.34s4.6-3.38,7-5.07q5.34-3.37,10.84-6.48a78.14,78.14,0,0,1,11.68-5.34q5.07-2,10.28-3.95a30.43,30.43,0,0,1,10.84-2l5.2.57a24.8,24.8,0,0,1,5.21,1.12,8.11,8.11,0,0,1,5.49,4.51,37.51,37.51,0,0,0,3.8,6.47c-.19-.37.24-1.36,1.27-3a23.07,23.07,0,0,1,2.11-2.95,10.39,10.39,0,0,1,5.07-4.22,22,22,0,0,1,9.43-1.41,87.58,87.58,0,0,0,10,0,11.17,11.17,0,0,0,4.51-1,4.6,4.6,0,0,1,4.5.43,3.34,3.34,0,0,1,1.69,2.25,4.41,4.41,0,0,1-.28,2.67,26,26,0,0,1-1.41,2.68q-.84,1.41-1.41,2.25-8.73,12.94-16.33,26.32T493,351.56l-4.5,7.89q-2.27,3.94-4.79,7.88-5.07,8.18-10.69,16.89a57.67,57.67,0,0,0-7.89,18.58,12.36,12.36,0,0,0-.56,3.94,3.6,3.6,0,0,0,2.25,3.38,5.15,5.15,0,0,0,3.94.14,16.82,16.82,0,0,0,4.51-2.25,50,50,0,0,0,4.22-3.24c1.31-1.12,2.34-2,3.1-2.53q6.18-5.91,11.82-11.83T505.71,378q4.79-5.62,9.29-11.26a138.77,138.77,0,0,0,8.45-11.83c.37-.56.88-1.36,1.55-2.39a9.73,9.73,0,0,1,2.25-2.53,5,5,0,0,1,2.53-1.13c.84-.09,1.64.42,2.39,1.55a3.59,3.59,0,0,1,.42,2.95,11.35,11.35,0,0,1-1.4,3.1,22.32,22.32,0,0,1-2.12,2.82c-.75.84-1.4,1.55-2,2.11q-2.8,3.38-5.34,7a66.42,66.42,0,0,1-5.63,7q-2,2.82-4.09,5.35c-1.4,1.69-2.86,3.38-4.36,5.07q-5.07,5.91-10.28,11.68T486.85,409a106.17,106.17,0,0,1-9.15,8.59,54.24,54.24,0,0,1-11.68,7.6,32,32,0,0,1-12.39,3.24q-6.19.29-11.26-4.79a19.94,19.94,0,0,1-6.05-11,30.15,30.15,0,0,1,.14-12.66l1.12-2.82a4.9,4.9,0,0,0,.29-2.82,4.82,4.82,0,0,0-2.68,1.83,34.06,34.06,0,0,1-2.39,2.68,51.45,51.45,0,0,0-4.08,3.94c-1.23,1.32-2.49,2.72-3.8,4.22a82.48,82.48,0,0,1-19.71,15.49,47.75,47.75,0,0,1-12.67,5.2A26.48,26.48,0,0,1,379,427.86Zm25.9-19.71a52.89,52.89,0,0,0,13.65-9.43A139.11,139.11,0,0,0,430,386.47q9-11.25,17.17-22.94a280.41,280.41,0,0,0,15.21-24.35l6.19-11.26a85.55,85.55,0,0,0,5.35-11.83,60.45,60.45,0,0,0,1.83-7.88,9.59,9.59,0,0,0-1.83-7.6,7.56,7.56,0,0,0-8.17-2.81,33.94,33.94,0,0,0-8.72,3.09,62.74,62.74,0,0,0-18.16,15.49q-8,9.86-14.78,19.14-3.94,5.07-7.32,10.41t-7,10.7Q406,362,403,367.61t-6.19,11.54q-1.14,2.53-2.68,5.63a48.69,48.69,0,0,0-2.67,6.48,34.63,34.63,0,0,0-1.55,6.61,10.29,10.29,0,0,0,1,6.06q2.25,4.79,5.92,5.49A13.85,13.85,0,0,0,404.93,408.15Z"/><path class="cls-1" d="M875.25,287.68c-12.32-5.3-25.84-7.34-39.07-4.48-24.54,5.31-45.45,24.12-63.42,42.14-3.55,3.56-6.9,7.09-9.77,10.42-10.79,12-20.17,25-29.29,38.27a109.06,109.06,0,0,1-15.48,18l-9.85,9.29a41.3,41.3,0,0,1-11.26,7.6,31.52,31.52,0,0,1-4.93,1.55,4.9,4.9,0,0,1-4.93-1.27c-1.12-1.12-1.45-2.77-1-4.93a30.82,30.82,0,0,1,2.39-6.75,50.88,50.88,0,0,1,3.8-6.62q2.12-3.09,3-4.5,3.93-6.48,8.16-12.95c2.82-4.32,5.53-8.63,8.17-13q6.18-9.57,12.1-19.29a116.91,116.91,0,0,0,9.85-20.4,46,46,0,0,0,2.4-12.11,27.6,27.6,0,0,0-1.83-12.11,8.67,8.67,0,0,0-1.69-2.11,23,23,0,0,1-2-1.83,14.43,14.43,0,0,0-8.17-4.5,42.48,42.48,0,0,0-9.85,0,57.72,57.72,0,0,0-11.12,2.25,55.11,55.11,0,0,0-10.56,4.51,56.09,56.09,0,0,0-12.38,9.29,39.42,39.42,0,0,0-5.63,5.63c-.19,0-.52.23-1,.7l-1.55,1.55a27.49,27.49,0,0,1-2.25,2c0-1.5,0-3,.14-4.37s.14-2.85.14-4.36q-.57-8.71-6.47-13.23a21.3,21.3,0,0,0-14.08-4.22,32.33,32.33,0,0,0-11,2.53,66,66,0,0,0-10.13,5.35,32.64,32.64,0,0,1-3.52,2.53c-2,1.32-4,2.78-6.19,4.37s-4.09,3-5.78,4.22a10.54,10.54,0,0,0-2.53,2.11,3.91,3.91,0,0,1,.28-3.24,19.37,19.37,0,0,0,1.41-3.23c.38-1.5.75-3.19,1.13-5.07a6.12,6.12,0,0,0-1.13-5.07,7.9,7.9,0,0,0-6.76-2.53,68.44,68.44,0,0,0-7.32.84,34.15,34.15,0,0,1-8.3.14,15.06,15.06,0,0,0-8.31,1.55,5.74,5.74,0,0,0-3.8,4.79,46.59,46.59,0,0,1-1.26,6.47,52.44,52.44,0,0,1-7.18,15.77q-4.94,7.32-9.43,14.64-10.71,17.73-20.69,35.47t-21.82,34.62q-2.82,3.94-6.47,8.17a15.17,15.17,0,0,0-3.95,9.29,7.13,7.13,0,0,0-.14,3.66A3,3,0,0,0,506.8,427q1.13.57,5.07.57h8.44c3,0,5.87-.1,8.59-.28a21.24,21.24,0,0,0,5.49-.85l1.13-.56a2.57,2.57,0,0,1,1.12-.28,8.14,8.14,0,0,0,4.09-3,29.21,29.21,0,0,0,2.81-4.78,42.37,42.37,0,0,0,2.11-5.35,24.63,24.63,0,0,1,2-4.65q8.16-14.07,17.31-27.16T582.81,354q5.07-7.59,10.42-14.92a117,117,0,0,1,11.82-13.79q5.34-5.62,12.39-12t14.92-7.45c3-.38,4.26,1,3.8,4.22a45,45,0,0,1-3.38,11,118.42,118.42,0,0,1-5.91,11.82q-3.24,5.64-3.8,6.76-10.71,18.3-21.26,36.17t-21.53,35.61a26.81,26.81,0,0,0-1.83,2.82,38.93,38.93,0,0,0-1.83,3.52,13.89,13.89,0,0,0-1.13,3.66,4,4,0,0,0,.85,3.23,4.65,4.65,0,0,0,3.09,2,35.27,35.27,0,0,0,4.93.85,51.9,51.9,0,0,0,5.21.28h3.94c2.06,0,4.08-.1,6-.28a17.61,17.61,0,0,0,5.49-1.41,12,12,0,0,0,4.79-4.64c1.12-2,2.34-3.9,3.66-5.77q9-14.08,17.17-28.16t16.89-28.43q7.32-12.39,16.05-25.2a88.09,88.09,0,0,1,20.55-21.53,49.61,49.61,0,0,1,6.33-4.08c2.53-1.41,4.83-1.64,6.9-.71,2.06.76,3.19,2,3.38,3.8a16.18,16.18,0,0,1-.29,5.21,28.19,28.19,0,0,1-2.11,7.46,67.79,67.79,0,0,1-3.51,6.9,97.49,97.49,0,0,1-7.61,11.82q-4.21,5.64-8.16,11.55a140,140,0,0,0-8.31,13.51L663,382.2q-2.25,3.93-4.92,9.43a63.09,63.09,0,0,0-4.23,11.12,28.11,28.11,0,0,0-.84,11.12A15.22,15.22,0,0,0,658,423.3a19.47,19.47,0,0,0,10.83,4.92,39.66,39.66,0,0,0,12.39-.56,46.34,46.34,0,0,0,12.11-4.22,59,59,0,0,0,10-6.34q3.09-2.53,6.05-4.92t6-4.93a104.86,104.86,0,0,0,11.41-10.84q5.21-5.76,10-12.24,1.41-1.69,5.63-6.62a127.12,127.12,0,0,0,8-10.42S803,287.77,856.51,295c43.84,15.29,41.32,55.31,41.44,85.66.32,85.94-88.32,145.66-168.27,142.64-66.19-2.5-129.81-22.77-193.38-39.52-125.19-33-267.35-57.32-392.08-9.67a281.26,281.26,0,0,0-80.34,47.6,320.65,320.65,0,0,0-47.41,50.62s68.85-25.6,38.15,47c2-6.56,13.2-15.15,17.73-19.82A420.8,420.8,0,0,1,124.93,554c53.85-39.74,92.32-68.44,160.1-74,103.26-8.52,227.54,20.39,327.4,41,51.65,10.68,103.63,23.77,156.81,18.3,66.64-6.85,125-67.21,141.33-130.34C919.85,373.18,917,305.62,875.25,287.68Z"/><path class="cls-1" d="M508.36,9.83a46.16,46.16,0,0,0-11.31,2.51,77.91,77.91,0,0,0-10.78,4.76q-5.2,2.79-10,5.48a125.56,125.56,0,0,0-24.79,17.59A157.74,157.74,0,0,0,431,62.62q-3.4,4.68-6.91,9.16t-6.74,9.34a96.83,96.83,0,0,0-5.56,9.25,39,39,0,0,1-6.29,8.71,6.39,6.39,0,0,1-5.29,2.15l-5.84-.36q-4,0-7.9.36l-7.9.72q-3.06.36-6.56.54a9.91,9.91,0,0,1-6.19-1.62,2.11,2.11,0,0,1-1.08-1.79,4.75,4.75,0,0,1,.63-2.25,12.83,12.83,0,0,1,1.52-2.24q.9-1.08,1.44-1.8A168.12,168.12,0,0,0,380.68,74q5.56-9.78,12-18.94c1.08-1.44,2.13-2.84,3.14-4.22a22.21,22.21,0,0,1,3.42-3.68,16.38,16.38,0,0,1,4.13-2.61,10.94,10.94,0,0,1,5.11-.8q4.32.18,9.07.09a84.7,84.7,0,0,0,9.52-.72A46.32,46.32,0,0,0,436.26,41a28.8,28.8,0,0,0,8-4.22c1.32-.95,2.72-2.09,4.22-3.41a7.29,7.29,0,0,0,2.6-4.49,9.64,9.64,0,0,0-.53-4.85,6,6,0,0,0-3.42-3.41,15.62,15.62,0,0,0-7.54-1.08,70.42,70.42,0,0,0-7.72,1.08,52,52,0,0,0-12,3.59c-3.84,1.68-7.72,3.3-11.67,4.85a16.61,16.61,0,0,1-4,1.08,5.64,5.64,0,0,1-3.6-1.08,33.54,33.54,0,0,0-4-1.88c-1.37-.54-2.78-1.11-4.22-1.71q-6.83-2.7-13.73-4.85a80.28,80.28,0,0,0-14.46-3.05Q358.6,17,352.85,17a74.16,74.16,0,0,0-11.5.9c-3.23.6-6.46,1.25-9.69,2s-6.41,1.56-9.52,2.52a84.67,84.67,0,0,0-28.64,15,126.2,126.2,0,0,0-22.72,23.26,75.22,75.22,0,0,0-5.84,9.06,58.4,58.4,0,0,0-4.22,9.7,39.58,39.58,0,0,0-1.88,10.24A34.65,34.65,0,0,0,260,100.33a24.26,24.26,0,0,0,4.94,9.34,19.58,19.58,0,0,0,8.71,5.93,17.83,17.83,0,0,0,6.47,1,31.21,31.21,0,0,0,6.73-.89,44.15,44.15,0,0,0,6.56-2.16,45.38,45.38,0,0,0,5.92-3,31.56,31.56,0,0,0,6.92-5.48l6-6.37a22.73,22.73,0,0,0,3-3.59,10.79,10.79,0,0,0,1.53-4.49q.18-2.34-.54-2.79a2,2,0,0,0-2,.18,10.94,10.94,0,0,0-2.52,1.8c-.84.78-1.49,1.41-2,1.88a60.3,60.3,0,0,1-4.58,4.13,31.72,31.72,0,0,1-5.12,3.42,21.55,21.55,0,0,1-5.57,2.06,16,16,0,0,1-6.1.09A14.39,14.39,0,0,1,279.76,96a20.77,20.77,0,0,1-4.31-9.51,33.79,33.79,0,0,1,.9-13.38,58.12,58.12,0,0,1,4.85-12.48,46.11,46.11,0,0,1,7.18-9.7A55.81,55.81,0,0,1,298,43a61.54,61.54,0,0,1,11.13-5.84,42,42,0,0,1,11.76-2.87,134.53,134.53,0,0,1,31.07,0q7.55.9,14.72,2.42t14.73,3a19.88,19.88,0,0,0,2.87.26q2,.1,2.34,1,.36,1.26-1.35,2.43c-1.14.78-1.95,1.34-2.43,1.7-1.67,1.32-3.29,2.7-4.84,4.13s-3.18,2.82-4.85,4.13a153,153,0,0,0-19.31,19.58A177.88,177.88,0,0,0,338.3,95.13a43.41,43.41,0,0,1-3,4,5.29,5.29,0,0,1-4.22,2.06h-3.06c-1.19,0-2.36,0-3.5.09a20.1,20.1,0,0,0-3.32.45,7.8,7.8,0,0,0-2.69,1.08,3.27,3.27,0,0,0-1.17,1.88,6.58,6.58,0,0,0-.09,2.43,2.47,2.47,0,0,0,1.53,2.42c.89.3,1.94.69,3.14,1.17a5.13,5.13,0,0,1,3-.54l3,.36a7.22,7.22,0,0,0-.62,1.17,7.15,7.15,0,0,1-.63,1.16,128.18,128.18,0,0,1-7.09,11.5q-3.87,5.57-7.82,11.13-3.77,5.39-7.36,10.77t-7.54,10.6a106.94,106.94,0,0,1-9.07,10.33A71.61,71.61,0,0,1,277.07,176a55.54,55.54,0,0,1-12.22,6.2,39.77,39.77,0,0,1-13.64,2.33c-1.08,0-2.34,0-3.78-.09a16.43,16.43,0,0,1-4.22-.71,10.25,10.25,0,0,1-3.5-1.8,5.2,5.2,0,0,1-1.79-3.32,3.27,3.27,0,0,1,.36-2.61,14.54,14.54,0,0,1,1.7-2.24q1-1.08,2.07-2.07a7,7,0,0,0,1.61-2.06,11.28,11.28,0,0,0,1.71-5.93,14,14,0,0,0-1-5.92,9.62,9.62,0,0,0-2.78-4,10.74,10.74,0,0,0-4.22-2.25,14.8,14.8,0,0,0-4.85-.45,10.63,10.63,0,0,0-4.67,1.44,11.93,11.93,0,0,0-5.84,7.09,35.6,35.6,0,0,0-1.7,9.43,25.38,25.38,0,0,0,1.26,10.33,14.8,14.8,0,0,0,6.64,7.45,27.82,27.82,0,0,0,7.09,3.05,44.06,44.06,0,0,0,7.46,1.44,10.72,10.72,0,0,0,2.6.36,17.05,17.05,0,0,1,2.42.18q3.78.18,7.54,0c2.52-.12,5-.36,7.55-.72a89.29,89.29,0,0,0,25.05-6.56,100.19,100.19,0,0,0,22.54-13.2,130.17,130.17,0,0,0,23-23,235.14,235.14,0,0,0,18.14-26.94q1.44-2.51,2.78-5.12a12.47,12.47,0,0,1,9.25-6.28,38.88,38.88,0,0,1,5.93-.09q5.93.36,11.94.18t11.94.18c1.56.12,2.45.57,2.69,1.35a3.67,3.67,0,0,1-.27,2.6,19.94,19.94,0,0,1-1.7,3l-1.8,2.7q-7.91,12-14.72,24.6t-14.91,24.6a42.84,42.84,0,0,1-2.87,3.59,53.69,53.69,0,0,0-4,5.39,24.41,24.41,0,0,0-2.78,5.48q-.9,2.59.89,3.68a11.72,11.72,0,0,0,5.57,1.52,56.93,56.93,0,0,0,5.75-.09,37.71,37.71,0,0,0,8.35-1.43c2.33-.72,4.34-2.52,6-5.39s3.62-5.68,5.48-8.44,3.62-5.63,5.3-8.62q2.14-4.12,4.49-8.08t4.85-8.08q8.61-14.19,17.59-28.1t17.78-27.93q5.39-8.45,10.87-17T457.45,59.3q6-8,12.75-15.44a122.58,122.58,0,0,1,14.62-13.73c9.26-7.37,22.29-12.59,33.9-7.95,13.13,5.24,21.08,21.5,10.72,33.44-10.08,11.62-33.7,8.59-34.33-8.83C497.62,116,604,71,559.07,23.27,550,13.6,520.93,7.28,508.36,9.83Z"/><path class="cls-1" d="M624.9,113.8a22.82,22.82,0,0,0-3.59-8.44,11.37,11.37,0,0,0-7.72-4.85,20.07,20.07,0,0,0-9.07.27,29.72,29.72,0,0,0-8.35,3.68c-1.2.72-2.33,1.47-3.41,2.25a25.09,25.09,0,0,0-3,2.6q-1.08.9-2.34,2.16a3.77,3.77,0,0,1-2.69,1.25q.89-2.14,1.79-4.94a8.89,8.89,0,0,0,.18-5.29,3,3,0,0,0-3.41-2.16c-1.8.12-3.29.24-4.49.36a47,47,0,0,1-7,.54q-1.08,0-2.43-.09a6.26,6.26,0,0,0-2.42.27,2.73,2.73,0,0,0-1.62,1.44,7.6,7.6,0,0,0-.72,2.42q-.18,1.35-.27,2.7a20.23,20.23,0,0,1-.26,2.24,21.67,21.67,0,0,1-3.06,7c-1.43,2.16-2.87,4.25-4.31,6.29-1,1.68-1.94,3.26-3,4.76s-2,3-3,4.58q-5,8.07-9.61,16.25t-9.61,16.25a462.07,462.07,0,0,1-26.93,39.51q-4.48,5.73-9.15,11.29c-11.15-7.55-21.71-11-32.27-9.53h0c-18.1,1.54-26.73,14.05-26.73,14.05A11.51,11.51,0,0,0,434,225.5a13.82,13.82,0,0,0,0,7,13.62,13.62,0,0,0,3.14,5.66,16.81,16.81,0,0,0,5.39,3.86,24.67,24.67,0,0,0,6.74,2,55.37,55.37,0,0,0,11.85.18c1.68-.24,3.32-.45,4.94-.63a46.75,46.75,0,0,0,4.93-.8,72.24,72.24,0,0,0,30.56-13.94c2.84,2.81,5.42,5.61,7.68,8,13.29,14.31,26.41,24.92,46.94,25.94,11.67.58,22.66,0,32.05-7.58,0,0-18.09,3.46-9.88-10.75,0,0-29.4,23.72-59.16-7.47q-6.48-6.78-12.61-12.16l3.21-2.56q3.6-2.88,7-6.11a96.18,96.18,0,0,0,12.48-14.91q5.47-8.07,11.22-16.16a6,6,0,0,1,2.16-2.15c.59-.24,1.49.12,2.69,1.08a18.74,18.74,0,0,0,7.54,3.77,23.82,23.82,0,0,0,4.94.89,31.33,31.33,0,0,0,4.94,0,51.56,51.56,0,0,0,17.78-5.11A71.5,71.5,0,0,0,596,173.42a68.56,68.56,0,0,0,10.33-10.86q4.57-6,8.53-12.3c1.31-2.28,2.54-4.55,3.68-6.83s2.18-4.61,3.14-7a69.09,69.09,0,0,0,3.05-11.14A33.6,33.6,0,0,0,624.9,113.8ZM455,237.53c-.11,0-.21-.09-.32-.13l1.51.41C455.82,237.72,455.42,237.65,455,237.53Zm30.53-10.78a65.23,65.23,0,0,1-10.95,7.91c-4,2.27-8.2,3.87-12.74,3.59-21.34-1.32-4.22-20.54,3.91-23.82,9.06-3.66,18.05,0,26,5.85C489.77,222.5,487.71,224.67,485.55,226.75ZM606.41,117a31.09,31.09,0,0,1-1.35,5.84,40.76,40.76,0,0,1-2.43,5.75c-1,1.85-1.79,3.56-2.51,5.11a194.59,194.59,0,0,1-10.41,18.86A153.07,153.07,0,0,1,577,170a45,45,0,0,1-6.38,6.19A39.26,39.26,0,0,1,563,181a16.1,16.1,0,0,1-5.39,1.26,6,6,0,0,1-4.85-1.8,6.76,6.76,0,0,1-2.33-5.56,13.93,13.93,0,0,1,1.61-5.93q3.24-6.1,6.65-12.12t7.18-11.76q1.44-2,2.78-4.13c.9-1.44,1.83-2.81,2.79-4.13a137.45,137.45,0,0,1,11.31-14.28,59.84,59.84,0,0,1,14-11.4,21.58,21.58,0,0,1,2.33-1.35,8.24,8.24,0,0,1,2.61-.81,4.46,4.46,0,0,1,2.51.36,3.38,3.38,0,0,1,1.71,2.16A12.72,12.72,0,0,1,606.41,117Z"/><path class="cls-1" d="M728.7,113.8a23,23,0,0,0-3.59-8.44,11.39,11.39,0,0,0-7.73-4.85,20.08,20.08,0,0,0-9.07.27,30,30,0,0,0-8.35,3.68c-1.19.72-2.33,1.47-3.41,2.25a25.88,25.88,0,0,0-3,2.6c-.72.6-1.5,1.32-2.33,2.16a3.77,3.77,0,0,1-2.7,1.25q.9-2.14,1.8-4.94a9,9,0,0,0,.18-5.29,3,3,0,0,0-3.41-2.16c-1.8.12-3.3.24-4.49.36a47.17,47.17,0,0,1-7,.54c-.72,0-1.52,0-2.42-.09a6.31,6.31,0,0,0-2.43.27,2.74,2.74,0,0,0-1.61,1.44,7.6,7.6,0,0,0-.72,2.42q-.18,1.35-.27,2.7a17.86,17.86,0,0,1-.27,2.24,21.65,21.65,0,0,1-3.05,7c-1.44,2.16-2.88,4.25-4.31,6.29-1,1.68-2,3.26-3,4.76s-2,3-3,4.58q-5,8.07-9.61,16.25t-9.6,16.25a462.2,462.2,0,0,1-26.94,39.51q-4.39,5.63-9,11.1c-11-7.42-21.52-10.8-32-9.34h0a38.31,38.31,0,0,0-24.66,11.6,14.93,14.93,0,0,0-2.52,2.45,11.49,11.49,0,0,0-2.42,4.85,13.82,13.82,0,0,0,0,7,13.51,13.51,0,0,0,3.14,5.66,16.7,16.7,0,0,0,5.39,3.86,24.6,24.6,0,0,0,6.73,2,55.37,55.37,0,0,0,11.85.18c1.68-.24,3.33-.45,4.94-.63a46.93,46.93,0,0,0,4.94-.8,72.35,72.35,0,0,0,30.81-14.13c2.91,2.87,5.56,5.74,7.87,8.24,13.29,14.31,26.41,24.92,46.94,25.94,11.66.58,22.66,0,32-7.58,0,0-18.08,3.46-9.88-10.75,0,0-29.39,23.72-59.16-7.47q-6.58-6.9-12.81-12.34l3-2.38q3.58-2.88,7-6.11a95.62,95.62,0,0,0,12.48-14.91q5.48-8.07,11.23-16.16a5.9,5.9,0,0,1,2.15-2.15c.6-.24,1.5.12,2.69,1.08a18.78,18.78,0,0,0,7.55,3.77,23.73,23.73,0,0,0,4.93.89,31.33,31.33,0,0,0,4.94,0,51.5,51.5,0,0,0,17.78-5.11,71.57,71.57,0,0,0,15.45-10.15,68.05,68.05,0,0,0,10.32-10.86q4.57-6,8.53-12.3c1.32-2.28,2.54-4.55,3.68-6.83s2.19-4.61,3.15-7a70.14,70.14,0,0,0,3-11.14A33.6,33.6,0,0,0,728.7,113.8Zm-139.35,113a65.31,65.31,0,0,1-11,7.91,26.58,26.58,0,0,1-12.74,3.59,19.77,19.77,0,0,1-7.41-1,6.34,6.34,0,0,1,1.07.06c-12.58-7.82,4.26-19.19,7.83-21.42a18.09,18.09,0,0,1,2.87-1.49c9-3.62,17.85-.09,25.75,5.65C593.68,222.37,591.57,224.61,589.35,226.75ZM710.2,117a30.33,30.33,0,0,1-1.35,5.84,39.57,39.57,0,0,1-2.42,5.75c-1,1.85-1.8,3.56-2.52,5.11a192.47,192.47,0,0,1-10.41,18.86A150.69,150.69,0,0,1,680.75,170a44.91,44.91,0,0,1-6.37,6.19,39.33,39.33,0,0,1-7.64,4.76,16,16,0,0,1-5.38,1.26,6,6,0,0,1-4.85-1.8,6.76,6.76,0,0,1-2.34-5.56,14.08,14.08,0,0,1,1.62-5.93q3.23-6.1,6.64-12.12t7.19-11.76q1.43-2,2.78-4.13c.9-1.44,1.82-2.81,2.78-4.13a136.22,136.22,0,0,1,11.32-14.28,59.79,59.79,0,0,1,14-11.4,21.74,21.74,0,0,1,2.34-1.35,8.1,8.1,0,0,1,2.6-.81,4.48,4.48,0,0,1,2.52.36,3.4,3.4,0,0,1,1.7,2.16A12.43,12.43,0,0,1,710.2,117Z"/><path class="cls-2" d="M422.24,179.6l-.36-.18a10.41,10.41,0,0,1-5.12-3.5,16.22,16.22,0,0,1-2.78-5.48,24.72,24.72,0,0,1-1-6.37,40.92,40.92,0,0,1,.27-6.19,52.61,52.61,0,0,1,2-9,61.59,61.59,0,0,1,5.2-11.5A175.15,175.15,0,0,1,430.86,122a91,91,0,0,1,12.75-13.65q2-1.78,4.13-3.41c1.43-1.08,2.93-2.15,4.49-3.23,2.27-1.44,4.58-2.81,6.91-4.13a49,49,0,0,1,7.45-3.41c2.16-.84,4.34-1.68,6.56-2.52a19.31,19.31,0,0,1,6.91-1.26c1.08.12,2.19.25,3.32.36a15.69,15.69,0,0,1,3.33.72,5.21,5.21,0,0,1,3.5,2.88,23.7,23.7,0,0,0,2.42,4.13q-.18-.36.81-1.89a14.58,14.58,0,0,1,1.35-1.89A6.61,6.61,0,0,1,498,92a14.13,14.13,0,0,1,6-.9,56.38,56.38,0,0,0,6.37,0,7.09,7.09,0,0,0,2.87-.63,3,3,0,0,1,2.88.27,2.2,2.2,0,0,1,1.08,1.44,2.85,2.85,0,0,1-.19,1.71,16.6,16.6,0,0,1-.89,1.7q-.54.9-.9,1.44-5.56,8.27-10.42,16.79T495,130.94l-2.88,5c-1,1.67-2,3.35-3,5q-3.23,5.22-6.82,10.78a36.79,36.79,0,0,0-5,11.85,8,8,0,0,0-.36,2.52,2.3,2.3,0,0,0,1.44,2.15,3.26,3.26,0,0,0,2.51.09,10.73,10.73,0,0,0,2.87-1.44,30,30,0,0,0,2.7-2.06c.83-.72,1.49-1.26,2-1.62q3.94-3.76,7.54-7.54t7.19-7.9q3-3.58,5.92-7.19a84.13,84.13,0,0,0,5.39-7.54c.24-.36.57-.86,1-1.52a6.33,6.33,0,0,1,1.44-1.62,3.17,3.17,0,0,1,1.61-.72q.81-.09,1.53,1a2.32,2.32,0,0,1,.27,1.88,7.25,7.25,0,0,1-.9,2,14.08,14.08,0,0,1-1.35,1.8c-.48.54-.9,1-1.25,1.34q-1.8,2.16-3.42,4.49a39.9,39.9,0,0,1-3.59,4.49c-.84,1.2-1.7,2.34-2.6,3.41s-1.83,2.16-2.79,3.24q-3.23,3.77-6.55,7.45T491,167.57a67.31,67.31,0,0,1-5.83,5.48,34.86,34.86,0,0,1-7.45,4.85,20.56,20.56,0,0,1-7.9,2.06,9.31,9.31,0,0,1-7.19-3.05,12.77,12.77,0,0,1-3.86-7,19.28,19.28,0,0,1,.09-8.08l.72-1.8a3.11,3.11,0,0,0,.18-1.8,3.1,3.1,0,0,0-1.71,1.17c-.54.66-1.05,1.23-1.52,1.71a35,35,0,0,0-2.61,2.51c-.78.84-1.59,1.74-2.42,2.69a52.3,52.3,0,0,1-12.57,9.88,30.28,30.28,0,0,1-8.08,3.32A16.82,16.82,0,0,1,422.24,179.6ZM438.76,167a33.84,33.84,0,0,0,8.71-6,89.58,89.58,0,0,0,7.27-7.81q5.75-7.19,11-14.64A179,179,0,0,0,475.39,123c1.32-2.4,2.64-4.79,3.95-7.19a53.08,53.08,0,0,0,3.42-7.54,40,40,0,0,0,1.16-5,6.1,6.1,0,0,0-1.16-4.84,4.81,4.81,0,0,0-5.21-1.8,22,22,0,0,0-5.57,2,40,40,0,0,0-11.58,9.88q-5.11,6.29-9.43,12.21c-1.68,2.16-3.23,4.37-4.67,6.65s-2.93,4.55-4.49,6.82-3,4.61-4.31,7-2.63,4.84-3.95,7.36c-.48,1.07-1.05,2.27-1.7,3.59a31.42,31.42,0,0,0-1.71,4.13,22.54,22.54,0,0,0-1,4.22,6.52,6.52,0,0,0,.63,3.86c1,2,2.21,3.2,3.77,3.5A8.8,8.8,0,0,0,438.76,167Z"/><path class="cls-2" d="M823.23,91.07a5.12,5.12,0,0,1,3.23.54c.72.48,1.08,1.5,1.08,3a16.28,16.28,0,0,1-.81,5,15.74,15.74,0,0,1-2.24,4.49c-1.2,1.92-2.37,3.77-3.5,5.57l-3.51,5.56-7,11.86q-3.06,5.2-6.1,10.41T798.09,148q-3.23,4.84-6.55,9.7t-6.2,10.05q-2.52,4.32-4.85,8.62t-4.85,8.44q-4.49,7-9.43,13.74A107.3,107.3,0,0,1,755.53,211a93.32,93.32,0,0,1-12.39,10.41,71.9,71.9,0,0,1-14.73,7.91q-5.2,2-10.59,3.41a67.36,67.36,0,0,1-11.14,2,54.51,54.51,0,0,1-5.47.45,36.11,36.11,0,0,1-5.66-.27c-.24,0-1-.09-2.15-.27s-2.43-.39-3.69-.62-2.39-.52-3.41-.81-1.52-.63-1.52-1v.36a10.48,10.48,0,0,1-4.4-3.05,24.7,24.7,0,0,1-3.15-4.49,10.78,10.78,0,0,1-1.07-6.74,14,14,0,0,1,2.69-6.55,12,12,0,0,1,5.39-4.13,8.11,8.11,0,0,1,6.82.54,9.4,9.4,0,0,1,4,3.59,6.52,6.52,0,0,1,.72,5.21,11.41,11.41,0,0,1-2,4.31,5.43,5.43,0,0,0-1.07,4.49q.72,2.87,4.13,3.59a29.39,29.39,0,0,0,5.74.72,25.74,25.74,0,0,0,7.28-1.08,34.81,34.81,0,0,0,7.09-3,51.17,51.17,0,0,0,6.46-4.21q3.06-2.34,5.57-4.67,2-1.8,3.77-3.69t3.42-3.86q4.67-5.57,8.79-11.31t8.27-11.67q2.68-4.14,5.47-8.17a36.19,36.19,0,0,0,4.4-8.71q0-.18.18-1.35t0-1a20.53,20.53,0,0,0-5.57,5,18.61,18.61,0,0,1-5.92,5,30,30,0,0,1-9.34,3,21.78,21.78,0,0,1-9.88-.63,8.54,8.54,0,0,1-4.13-2.51,12.07,12.07,0,0,1-2.42-4.13,18.75,18.75,0,0,1-1-4.85,32.71,32.71,0,0,1,0-4.85,24.28,24.28,0,0,1,1.8-7.18,58.61,58.61,0,0,1,3.41-6.82c2.16-4,4.49-7.84,7-11.68s5-7.66,7.54-11.49,5-7.69,7.37-11.58,4.61-7.93,6.64-12.12A26.69,26.69,0,0,0,760,99.06a32.26,32.26,0,0,1,1.26-3.59,9.08,9.08,0,0,1,2-3,6.11,6.11,0,0,1,3.41-1.62,17,17,0,0,1,4.94,0,22.57,22.57,0,0,0,4.94.18,13,13,0,0,1,4.31,0c1.32.24,2.21,1.2,2.69,2.88a6.67,6.67,0,0,1-.62,5.56c-1,1.68-2,3.35-3,5q-4.49,7.18-9,14.28t-8.8,14.45c-1.55,2.4-3,4.82-4.49,7.28s-2.87,4.88-4.3,7.27q-2,3.06-4,6.1a29.32,29.32,0,0,0-3.32,6.65,8.11,8.11,0,0,0-.72,4.49,3.7,3.7,0,0,0,1.71,2.6,6,6,0,0,0,3.41.72,10.37,10.37,0,0,0,4.22-1.17,29.07,29.07,0,0,0,8.89-6.91q3.86-4.4,7.45-8.53c1.68-2,3.35-4.25,5-6.64q4.13-5.92,8.17-12T792,120.7q3.6-5.92,7.1-12a48.4,48.4,0,0,0,5.12-12.93,5.08,5.08,0,0,1,2.15-3.14,9.1,9.1,0,0,1,3.77-1q3.23-.18,6.47-.18A63.25,63.25,0,0,0,823.23,91.07Z"/><path class="cls-2" d="M48.25,418a52.51,52.51,0,0,1-17.74-6.75,82,82,0,0,1-9.43-7.18,46.23,46.23,0,0,1-7.74-8.59A70.52,70.52,0,0,1,.25,359.06a120.44,120.44,0,0,1,3.94-39.13,178,178,0,0,1,14.92-37.87,296.21,296.21,0,0,1,20.13-32.94,326.07,326.07,0,0,1,33.22-39.27,251.1,251.1,0,0,1,39.69-32.51q6.46-4.23,13.23-7.88a77.6,77.6,0,0,1,14.08-5.92c2.06-.74,3.75-.56,5.06.57s1.51,2.53.57,4.22a1.62,1.62,0,0,0-.57,1.13A116.26,116.26,0,0,0,158.18,159a97.77,97.77,0,0,1,13.65-10.14,124.3,124.3,0,0,1,13.23-6.19,71.44,71.44,0,0,1,14.36-4.08,57.61,57.61,0,0,1,14.5-.7,40.63,40.63,0,0,1,13.93,3.66,34.15,34.15,0,0,1,11.54,8.72,41.63,41.63,0,0,1,7,12,52.81,52.81,0,0,1,3.24,13.79,81.47,81.47,0,0,1,.14,14.22,184.18,184.18,0,0,1-9.15,46,440.17,440.17,0,0,1-17.31,43.49,197.94,197.94,0,0,1-17,29.7q-9.72,13.94-19.57,28a269.06,269.06,0,0,1-35.47,40.4,165.3,165.3,0,0,1-44.2,30,133.37,133.37,0,0,1-28.43,9.29A79.39,79.39,0,0,1,48.25,418Zm51.79-31q3.1-.85,5.92-1.69c1.87-.57,3.66-1.13,5.35-1.69a87.21,87.21,0,0,0,21.39-11.4,174.79,174.79,0,0,0,18.58-15.63q4.78-5.07,9.43-10.27t9.43-10.84a244.17,244.17,0,0,0,25.76-36.88,265.69,265.69,0,0,0,18.72-41.1q4.23-12.1,7.32-24.77a132.53,132.53,0,0,0,3.66-25.62,99.51,99.51,0,0,0-1.55-19.85,35.53,35.53,0,0,0-8.3-17.87,29.22,29.22,0,0,0-9-6.48,33,33,0,0,0-10.14-3.1,42.16,42.16,0,0,0-25.19,4.37,93.85,93.85,0,0,0-21.26,15.06,63.51,63.51,0,0,0-14.63,19.14,175,175,0,0,0-9,22.52A132.77,132.77,0,0,0,122.28,236a48.87,48.87,0,0,0-.84,15.63A33.68,33.68,0,0,0,127.35,268a29.25,29.25,0,0,0,13.51,10.69,26.83,26.83,0,0,0,14.78,2,47.19,47.19,0,0,0,14.22-4.5,33,33,0,0,0,4.93-3.38q3.22-2.53,6.75-5.07a56.5,56.5,0,0,1,6.76-4.22c2.15-1.12,3.89-1.41,5.21-.84,2.43,1.12,3.28,2.63,2.53,4.5a17,17,0,0,1-4.22,5.77,51.3,51.3,0,0,1-6.62,5.35,38.87,38.87,0,0,0-4.36,3.24,119.21,119.21,0,0,1-18.16,11.4,72.24,72.24,0,0,1-21.53,7.32A47,47,0,0,1,120,299.09q-10.12-3-16.89-13.93a47.44,47.44,0,0,1-6.9-17.88,59.69,59.69,0,0,1-.14-18.72,85.28,85.28,0,0,1,4.93-18.3,119.84,119.84,0,0,1,8.31-17.17q3.09-4.78,6.19-9.15t6.19-8.87c2.25-3.19,4.6-6.23,7-9.15s5-5.67,7.6-8.3c.37-.38.94-1,1.69-2a6.71,6.71,0,0,1,1.69-1.69,41.08,41.08,0,0,0-9.57,4.64,72.52,72.52,0,0,0-8.59,6.62,100.93,100.93,0,0,0-7.74,7.74c-2.44,2.72-4.88,5.31-7.32,7.74q-8.17,8.45-15.62,17.46T76.68,237q-3.66,5.63-7,11.12t-6.47,11.4q-3.11,5.64-5.77,11.4t-4.93,12a243.39,243.39,0,0,0-8.17,26.88,142.65,142.65,0,0,0-3.94,27.73,60.44,60.44,0,0,0,1.13,16.61Q44.87,375,66.26,385.38a40.16,40.16,0,0,0,16.33,3.52A71.92,71.92,0,0,0,100,387.07Z"/><path class="cls-2" d="M275.1,422.82a38.48,38.48,0,0,1-6.62-1.13,13.26,13.26,0,0,1-5.49-2.81,17.27,17.27,0,0,1-4.93-7.32,24.36,24.36,0,0,1-1.12-8.31,33,33,0,0,1,1.41-8.58,76.76,76.76,0,0,1,2.95-8.17,161.29,161.29,0,0,1,10.84-19.84q6-9.44,12.53-18.72,3.65-5.64,7.32-11.27t7.32-11.26c1.12-1.69,2.53-3.56,4.22-5.63s3.28-4.22,4.78-6.47a27.54,27.54,0,0,0,3.38-6.9,8.9,8.9,0,0,0-.28-6.61,4.42,4.42,0,0,0-4.08-2.82,14.18,14.18,0,0,0-5.63,1.27,31.89,31.89,0,0,0-5.77,3.24c-1.88,1.31-3.2,2.25-3.94,2.81a78.35,78.35,0,0,0-9.86,8.59q-4.5,4.64-8.72,9.43l-9.29,11a161.69,161.69,0,0,0-17.32,23.78q-7.45,12.54-15.62,25.2-5.35,8.16-10.7,16.05t-11,15.48a14.57,14.57,0,0,1-3.38,3.8,9,9,0,0,1-4.78,1.83,36.29,36.29,0,0,1-5.49.14c-1.79-.1-3.62-.14-5.49-.14-6,0-9.81,0-11.4-.14a7.18,7.18,0,0,1-3.24-.7,6.32,6.32,0,0,1-1.27-4.51,8.66,8.66,0,0,1,2.4-5.35,149.79,149.79,0,0,0,15.9-22.94q6.9-12.26,14.5-24.07,4.5-7.32,8.73-14.36t8.72-14.07q4.52-6.48,8.59-13.37t8.59-13.66q1.4-2.25,2.81-4.64a25.62,25.62,0,0,0,2.25-4.93,21.36,21.36,0,0,0,.85-4.5,24.31,24.31,0,0,1,1.12-5.35,13.07,13.07,0,0,1,2.26-4.23c.94-1.12,2.43-1.4,4.5-.84a6.37,6.37,0,0,0,2.39.28,32.93,32.93,0,0,0,4.09-.28c3.94-.37,7.13-.66,9.57-.84s4.31-.29,5.63-.29a6.58,6.58,0,0,1,2.81.43,5.41,5.41,0,0,1,1.41,1q5.34,5.91-2,18.86a18.53,18.53,0,0,0-1.13,2.11,13,13,0,0,1-.56,1.27l-.28.56a8.79,8.79,0,0,1,3.24-3.23,23.43,23.43,0,0,0,3.8-3q2.25-1.68,4.22-3.24a48.41,48.41,0,0,1,4.22-2.95A100.67,100.67,0,0,1,304.66,286,57,57,0,0,1,317,281.78a31.81,31.81,0,0,1,9-.42,27.44,27.44,0,0,1,8.87,2.25,18.78,18.78,0,0,1,6.89,5.21,14.4,14.4,0,0,1,3.1,8.73,40,40,0,0,1-3.24,18.57,92.15,92.15,0,0,1-9.14,16.33q-5.92,8.44-12,16.75T308.88,366a193.5,193.5,0,0,0-14.36,23.65,21.37,21.37,0,0,1-1.83,3.38,22.18,22.18,0,0,0-2.11,4.22,12.11,12.11,0,0,0-.84,4.22,3.53,3.53,0,0,0,1.68,3.1c2.07,1.31,4.55,1.41,7.46.28s5.3-2.16,7.18-3.1A57.53,57.53,0,0,0,322,388.47q6.88-8.16,13.37-16a77,77,0,0,0,5.63-6.9q2.53-3.52,5.07-7.46a87.62,87.62,0,0,0,4.64-7.46,30.92,30.92,0,0,1,5.21-6.9,8.82,8.82,0,0,1,3.66-2.11,2.59,2.59,0,0,1,3.38,1.55,8.62,8.62,0,0,1,.56,6.05,21.17,21.17,0,0,1-2.81,5.91,64.11,64.11,0,0,1-4.23,5.63q-2.25,2.68-3.94,4.65-9.28,10.69-18.44,21.82A146,146,0,0,1,314,407.33a85.34,85.34,0,0,1-18.16,11.27A43.17,43.17,0,0,1,275.1,422.82Z"/><path class="cls-2" d="M369.77,418.6l-.56-.29a16.38,16.38,0,0,1-8-5.49,25.59,25.59,0,0,1-4.36-8.58,38.76,38.76,0,0,1-1.55-10,63.07,63.07,0,0,1,.42-9.71,83.8,83.8,0,0,1,3.1-14.07,96.21,96.21,0,0,1,8.16-18,273.21,273.21,0,0,1,16.33-24.21,143.81,143.81,0,0,1,20-21.4c2.06-1.87,4.22-3.66,6.47-5.34s4.6-3.38,7-5.07q5.34-3.37,10.84-6.48a78.14,78.14,0,0,1,11.68-5.34q5.07-2,10.28-4a30.42,30.42,0,0,1,10.83-2l5.21.57a24.94,24.94,0,0,1,5.21,1.12,8.11,8.11,0,0,1,5.49,4.51,37.51,37.51,0,0,0,3.8,6.47c-.19-.37.24-1.36,1.27-3a23.07,23.07,0,0,1,2.11-2.95,10.39,10.39,0,0,1,5.07-4.22,22,22,0,0,1,9.43-1.41,87.58,87.58,0,0,0,10,0,11.17,11.17,0,0,0,4.51-1,4.6,4.6,0,0,1,4.5.43,3.34,3.34,0,0,1,1.69,2.25,4.41,4.41,0,0,1-.28,2.67,26,26,0,0,1-1.41,2.68c-.56.94-1,1.69-1.41,2.25q-8.73,12.94-16.33,26.32T483.78,342.3l-4.5,7.89q-2.26,3.94-4.79,7.88-5.07,8.18-10.7,16.89a57.87,57.87,0,0,0-7.88,18.58,12.36,12.36,0,0,0-.56,3.94,3.6,3.6,0,0,0,2.25,3.38,5.15,5.15,0,0,0,3.94.14,17.12,17.12,0,0,0,4.51-2.25,50,50,0,0,0,4.22-3.24c1.31-1.12,2.34-2,3.09-2.53q6.19-5.91,11.83-11.83t11.26-12.38q4.79-5.62,9.29-11.26a136.49,136.49,0,0,0,8.44-11.83c.38-.56.89-1.36,1.55-2.39a9.94,9.94,0,0,1,2.26-2.53,5,5,0,0,1,2.53-1.13c.84-.09,1.64.42,2.39,1.55a3.62,3.62,0,0,1,.42,2.95,11.35,11.35,0,0,1-1.4,3.1,22.32,22.32,0,0,1-2.12,2.82c-.75.84-1.4,1.55-2,2.11q-2.82,3.38-5.34,7a65.27,65.27,0,0,1-5.64,7q-2,2.82-4.08,5.35c-1.4,1.69-2.86,3.38-4.36,5.07q-5.07,5.91-10.28,11.68t-10.55,11.4a106.17,106.17,0,0,1-9.15,8.59,54.24,54.24,0,0,1-11.68,7.6,32,32,0,0,1-12.39,3.24q-6.19.29-11.26-4.79a19.94,19.94,0,0,1-6.05-11,30.15,30.15,0,0,1,.14-12.66l1.12-2.82a4.9,4.9,0,0,0,.29-2.82,4.78,4.78,0,0,0-2.68,1.83c-.84,1-1.65,1.93-2.39,2.68a51.45,51.45,0,0,0-4.08,3.94c-1.23,1.32-2.49,2.72-3.81,4.22A82.24,82.24,0,0,1,396,413.25a48.09,48.09,0,0,1-12.67,5.2A26.48,26.48,0,0,1,369.77,418.6Zm25.9-19.71a53.06,53.06,0,0,0,13.65-9.43,140.64,140.64,0,0,0,11.4-12.25q9-11.25,17.17-22.94a280.41,280.41,0,0,0,15.21-24.35l6.19-11.26a85.55,85.55,0,0,0,5.35-11.83,62.12,62.12,0,0,0,1.83-7.88,9.59,9.59,0,0,0-1.83-7.6,7.56,7.56,0,0,0-8.17-2.81,33.94,33.94,0,0,0-8.72,3.09,62.74,62.74,0,0,0-18.16,15.49q-8,9.86-14.78,19.14-3.94,5.07-7.32,10.41t-7,10.7q-3.66,5.36-6.75,11t-6.2,11.54q-1.12,2.53-2.67,5.63a49.53,49.53,0,0,0-2.68,6.48,35.36,35.36,0,0,0-1.54,6.61,10.29,10.29,0,0,0,1,6.06q2.25,4.79,5.91,5.49A13.87,13.87,0,0,0,395.67,398.89Z"/><path class="cls-2" d="M866,278.42c-12.32-5.3-25.84-7.34-39.07-4.48-24.54,5.31-45.45,24.12-63.42,42.13-3.55,3.57-6.9,7.1-9.77,10.43-10.79,12-20.17,25-29.29,38.27a109.06,109.06,0,0,1-15.48,18l-9.85,9.29a41.3,41.3,0,0,1-11.26,7.6,31.52,31.52,0,0,1-4.93,1.55A4.9,4.9,0,0,1,678,400c-1.12-1.12-1.45-2.77-1-4.93a30.31,30.31,0,0,1,2.39-6.75,50.88,50.88,0,0,1,3.8-6.62c1.41-2.06,2.39-3.56,3-4.5q3.93-6.48,8.16-13c2.82-4.32,5.53-8.63,8.17-12.95q6.18-9.57,12.1-19.29a116.66,116.66,0,0,0,9.85-20.41,45.43,45.43,0,0,0,2.39-12.1A27.31,27.31,0,0,0,725,287.35a8.43,8.43,0,0,0-1.68-2.11,24.49,24.49,0,0,1-2-1.83,14.41,14.41,0,0,0-8.16-4.5,42.48,42.48,0,0,0-9.85,0,57.72,57.72,0,0,0-11.12,2.25,55.11,55.11,0,0,0-10.56,4.51A56.09,56.09,0,0,0,669.27,295a39,39,0,0,0-5.64,5.63c-.18,0-.51.23-1,.7s-1,1-1.55,1.55a27.49,27.49,0,0,1-2.25,2c0-1.5,0-3,.14-4.37s.14-2.85.14-4.36q-.57-8.71-6.47-13.23a21.3,21.3,0,0,0-14.08-4.22,32.33,32.33,0,0,0-11,2.53,66,66,0,0,0-10.13,5.35A32.64,32.64,0,0,1,614,289c-2,1.32-4,2.78-6.19,4.37s-4.09,3-5.78,4.22a10.54,10.54,0,0,0-2.53,2.11,3.91,3.91,0,0,1,.28-3.24,19.37,19.37,0,0,0,1.41-3.23q.55-2.25,1.13-5.07a6.12,6.12,0,0,0-1.13-5.07,7.9,7.9,0,0,0-6.76-2.53,68.44,68.44,0,0,0-7.32.84,34.15,34.15,0,0,1-8.3.14,15.06,15.06,0,0,0-8.31,1.55,5.74,5.74,0,0,0-3.8,4.79,46.59,46.59,0,0,1-1.26,6.47,52.44,52.44,0,0,1-7.18,15.77q-4.94,7.32-9.43,14.64-10.71,17.73-20.69,35.47t-21.82,34.62q-2.82,3.94-6.47,8.17a15.17,15.17,0,0,0-3.95,9.29,7.13,7.13,0,0,0-.14,3.66,3,3,0,0,0,1.83,1.68q1.13.57,5.07.57h8.44c3,0,5.87-.1,8.59-.28a21.24,21.24,0,0,0,5.49-.85l1.13-.56a2.41,2.41,0,0,1,1.12-.28,8.14,8.14,0,0,0,4.09-3,30.71,30.71,0,0,0,2.81-4.78,42.37,42.37,0,0,0,2.11-5.35,24,24,0,0,1,2-4.65q8.16-14.07,17.31-27.16t17.88-26.61q5.07-7.59,10.42-14.92a117,117,0,0,1,11.82-13.79q5.34-5.62,12.39-12t14.92-7.46c3-.37,4.26,1,3.8,4.23a45,45,0,0,1-3.38,11,118.42,118.42,0,0,1-5.91,11.82q-3.24,5.64-3.8,6.76-10.71,18.3-21.26,36.17T571,402.21a26.81,26.81,0,0,0-1.83,2.82,38.93,38.93,0,0,0-1.83,3.52,13.53,13.53,0,0,0-1.13,3.66,3.93,3.93,0,0,0,.85,3.23,4.68,4.68,0,0,0,3.09,2,35.27,35.27,0,0,0,4.93.85,51.9,51.9,0,0,0,5.21.28h3.94c2.06,0,4.08-.1,6-.28a17.61,17.61,0,0,0,5.49-1.41,12,12,0,0,0,4.79-4.64c1.12-2,2.34-3.9,3.66-5.77q9-14.08,17.17-28.16t16.89-28.43q7.32-12.39,16.05-25.2a88.09,88.09,0,0,1,20.55-21.53,48.91,48.91,0,0,1,6.33-4.08c2.53-1.41,4.83-1.64,6.9-.71,2.06.76,3.19,2,3.37,3.8a15.9,15.9,0,0,1-.28,5.21,28.19,28.19,0,0,1-2.11,7.46,67.88,67.88,0,0,1-3.52,6.9,96.23,96.23,0,0,1-7.6,11.82q-4.22,5.64-8.16,11.55a140,140,0,0,0-8.31,13.51l-7.74,14.36q-2.25,3.93-4.92,9.43a63.09,63.09,0,0,0-4.23,11.12,28.11,28.11,0,0,0-.84,11.12,15.25,15.25,0,0,0,4.93,9.43A19.43,19.43,0,0,0,659.55,419a39.66,39.66,0,0,0,12.39-.56,46.34,46.34,0,0,0,12.11-4.22,59.63,59.63,0,0,0,10-6.34q3.09-2.54,6.05-4.92t6-4.93a104.86,104.86,0,0,0,11.41-10.84q5.21-5.76,10-12.24,1.41-1.7,5.63-6.62a127.12,127.12,0,0,0,8-10.42s52.5-79.36,106.06-72.18C891.09,301,888.57,341,888.68,371.35,889,457.29,800.37,517,720.42,514c-66.19-2.5-129.81-22.77-193.38-39.52-125.19-33-267.35-57.32-392.08-9.67a281.12,281.12,0,0,0-80.34,47.6A320.65,320.65,0,0,0,7.21,563s68.85-25.6,38.15,47c2-6.56,13.2-15.15,17.73-19.82a420.8,420.8,0,0,1,52.58-45.38c53.85-39.74,92.32-68.44,160.1-74,103.26-8.52,227.54,20.39,327.4,41,51.65,10.68,103.63,23.77,156.81,18.3,66.64-6.85,125-67.21,141.33-130.34C910.59,363.92,907.74,296.36,866,278.42Z"/><path class="cls-2" d="M499.1.57a46.16,46.16,0,0,0-11.31,2.51A77.91,77.91,0,0,0,477,7.84q-5.2,2.79-10.06,5.48a125.79,125.79,0,0,0-24.78,17.59A157.74,157.74,0,0,0,421.7,53.36q-3.4,4.68-6.91,9.16t-6.74,9.34a96.83,96.83,0,0,0-5.56,9.25,38.72,38.72,0,0,1-6.29,8.7A6.39,6.39,0,0,1,390.9,92l-5.83-.36q-4,0-7.9.36l-7.9.72q-3.06.36-6.56.54a10,10,0,0,1-6.2-1.62,2.13,2.13,0,0,1-1.07-1.8,4.74,4.74,0,0,1,.63-2.24,12.83,12.83,0,0,1,1.52-2.24q.9-1.08,1.44-1.8a168.12,168.12,0,0,0,12.39-18.77q5.56-9.78,12-18.94c1.08-1.44,2.13-2.84,3.14-4.22A22.21,22.21,0,0,1,390,37.92a16.38,16.38,0,0,1,4.13-2.61,10.94,10.94,0,0,1,5.11-.8q4.32.18,9.07.09a84.7,84.7,0,0,0,9.52-.72A46.48,46.48,0,0,0,427,31.72a28.94,28.94,0,0,0,8-4.22c1.32-.95,2.72-2.09,4.22-3.41a7.29,7.29,0,0,0,2.6-4.49,9.64,9.64,0,0,0-.53-4.85,6,6,0,0,0-3.42-3.41,15.62,15.62,0,0,0-7.54-1.08,70.42,70.42,0,0,0-7.72,1.08,52,52,0,0,0-12,3.59c-3.84,1.68-7.72,3.3-11.68,4.85A16.43,16.43,0,0,1,395,20.86a5.64,5.64,0,0,1-3.6-1.08,35.22,35.22,0,0,0-4-1.89c-1.38-.53-2.78-1.1-4.22-1.7q-6.82-2.7-13.73-4.85A80.28,80.28,0,0,0,354.9,8.29q-5.56-.54-11.31-.54a74.16,74.16,0,0,0-11.5.9c-3.23.6-6.46,1.25-9.69,2s-6.41,1.56-9.52,2.52a84.67,84.67,0,0,0-28.64,15,125.88,125.88,0,0,0-22.72,23.26,75.22,75.22,0,0,0-5.84,9.06,58.4,58.4,0,0,0-4.22,9.7,39.16,39.16,0,0,0-1.88,10.24,34.34,34.34,0,0,0,1.16,10.68,24.26,24.26,0,0,0,4.94,9.34,19.58,19.58,0,0,0,8.71,5.93,17.83,17.83,0,0,0,6.47,1,31.29,31.29,0,0,0,6.73-.89,44,44,0,0,0,6.55-2.16,44.9,44.9,0,0,0,5.93-3A31.56,31.56,0,0,0,297,95.83q3-3.14,6-6.37a22.34,22.34,0,0,0,3-3.6,10.69,10.69,0,0,0,1.53-4.48q.18-2.34-.54-2.79a2,2,0,0,0-2,.18,10.94,10.94,0,0,0-2.52,1.8c-.84.78-1.5,1.41-2,1.88a60.3,60.3,0,0,1-4.58,4.13A31.72,31.72,0,0,1,290.79,90a21.55,21.55,0,0,1-5.57,2.06,16,16,0,0,1-6.1.09,14.39,14.39,0,0,1-8.62-5.39,20.67,20.67,0,0,1-4.31-9.51,33.79,33.79,0,0,1,.9-13.38,58.62,58.62,0,0,1,4.84-12.48,46.52,46.52,0,0,1,7.19-9.7,56.12,56.12,0,0,1,9.6-8,61.62,61.62,0,0,1,11.14-5.84A42,42,0,0,1,311.62,25a134.53,134.53,0,0,1,31.07,0q7.55.9,14.72,2.42t14.73,3a19.88,19.88,0,0,0,2.87.26c1.32.07,2.09.39,2.34,1q.36,1.26-1.35,2.43c-1.14.78-1.95,1.34-2.43,1.7-1.67,1.32-3.29,2.7-4.84,4.13s-3.18,2.82-4.85,4.13A152.34,152.34,0,0,0,344.57,63.6,177.45,177.45,0,0,0,329,85.86a40.91,40.91,0,0,1-3,4A5.28,5.28,0,0,1,321.86,92H318.8c-1.19,0-2.36,0-3.5.09a20.1,20.1,0,0,0-3.32.45,7.8,7.8,0,0,0-2.69,1.08,3.27,3.27,0,0,0-1.17,1.88A6.58,6.58,0,0,0,308,97.9a2.47,2.47,0,0,0,1.53,2.42c.89.3,1.94.69,3.14,1.17a5.13,5.13,0,0,1,3-.54l3,.36a7.22,7.22,0,0,0-.62,1.17,7.15,7.15,0,0,1-.63,1.16,126,126,0,0,1-7.1,11.5q-3.86,5.56-7.81,11.13-3.76,5.39-7.36,10.77t-7.54,10.6A106.94,106.94,0,0,1,278.49,158a71.18,71.18,0,0,1-10.69,8.79,55.25,55.25,0,0,1-12.21,6.2A39.77,39.77,0,0,1,242,175.29c-1.08,0-2.34,0-3.78-.09a16.43,16.43,0,0,1-4.22-.71,10.25,10.25,0,0,1-3.5-1.8,5.2,5.2,0,0,1-1.79-3.32,3.23,3.23,0,0,1,.36-2.61,14.54,14.54,0,0,1,1.7-2.24q1-1.08,2.07-2.07a7,7,0,0,0,1.61-2.06,11.28,11.28,0,0,0,1.71-5.93,14,14,0,0,0-1-5.92,9.71,9.71,0,0,0-2.78-3.95,10.74,10.74,0,0,0-4.22-2.25,14.8,14.8,0,0,0-4.85-.45,10.63,10.63,0,0,0-4.67,1.44,11.93,11.93,0,0,0-5.84,7.09,35.6,35.6,0,0,0-1.7,9.43,25.56,25.56,0,0,0,1.25,10.33,14.91,14.91,0,0,0,6.65,7.45,27.82,27.82,0,0,0,7.09,3.05,44.06,44.06,0,0,0,7.46,1.44,10.72,10.72,0,0,0,2.6.36,17.05,17.05,0,0,1,2.42.18q3.78.17,7.54,0c2.52-.12,5-.36,7.55-.72a89.29,89.29,0,0,0,25.05-6.56,100.19,100.19,0,0,0,22.54-13.2,130.17,130.17,0,0,0,23-23,236.45,236.45,0,0,0,18.14-26.94q1.44-2.51,2.78-5.12a12.47,12.47,0,0,1,9.25-6.28,38.88,38.88,0,0,1,5.93-.09q5.93.36,11.94.18t11.94.18c1.55.12,2.45.57,2.69,1.35a3.67,3.67,0,0,1-.27,2.6,19.94,19.94,0,0,1-1.7,3l-1.8,2.7q-7.9,12-14.72,24.6T353.46,160a42.84,42.84,0,0,1-2.87,3.59,52.57,52.57,0,0,0-4,5.39,24.41,24.41,0,0,0-2.78,5.48q-.91,2.59.89,3.68a11.72,11.72,0,0,0,5.57,1.52q3,.09,5.75-.09a37.71,37.71,0,0,0,8.35-1.43c2.33-.72,4.34-2.52,6-5.39s3.62-5.69,5.48-8.44,3.62-5.63,5.3-8.62q2.14-4.12,4.49-8.08t4.85-8.08q8.61-14.19,17.59-28.11t17.78-27.92q5.39-8.44,10.87-17T448.19,50q6-8,12.75-15.44a122.58,122.58,0,0,1,14.62-13.73c9.26-7.37,22.28-12.59,33.89-8,13.14,5.24,21.09,21.5,10.73,33.44C510.1,58,486.48,55,485.85,37.53c2.51,69.22,108.92,24.16,64-23.52C540.7,4.34,511.67-2,499.1.57Z"/><path class="cls-2" d="M615.64,104.54a22.82,22.82,0,0,0-3.59-8.44,11.37,11.37,0,0,0-7.72-4.85,20.07,20.07,0,0,0-9.07.27,29.72,29.72,0,0,0-8.35,3.68c-1.2.72-2.34,1.47-3.41,2.25a26,26,0,0,0-3.06,2.6c-.71.6-1.49,1.32-2.33,2.16a3.77,3.77,0,0,1-2.69,1.25q.89-2.14,1.79-4.94a8.89,8.89,0,0,0,.18-5.29A3,3,0,0,0,574,91.07c-1.8.12-3.29.24-4.49.36a47.14,47.14,0,0,1-7,.54q-1.08,0-2.43-.09a6.26,6.26,0,0,0-2.42.27A2.73,2.73,0,0,0,556,93.59,7.6,7.6,0,0,0,555.3,96c-.12.9-.21,1.8-.27,2.69a17.81,17.81,0,0,1-.27,2.25,21.44,21.44,0,0,1-3,7c-1.43,2.16-2.87,4.25-4.31,6.29-1,1.68-1.94,3.26-3,4.76s-2,3-3,4.58q-5,8.07-9.61,16.25t-9.61,16.25a462.07,462.07,0,0,1-26.93,39.51q-4.49,5.73-9.15,11.29c-11.15-7.55-21.71-11-32.27-9.53h0c-18.1,1.54-26.74,14-26.74,14a11.61,11.61,0,0,0-2.42,4.85,13.82,13.82,0,0,0,0,7,13.62,13.62,0,0,0,3.14,5.66,17,17,0,0,0,5.39,3.86,25.06,25.06,0,0,0,6.73,2,55.48,55.48,0,0,0,11.86.18c1.68-.24,3.32-.45,4.94-.63a46.75,46.75,0,0,0,4.93-.8,72.29,72.29,0,0,0,30.56-13.94c2.83,2.81,5.42,5.61,7.68,8.05,13.29,14.31,26.41,24.92,46.94,25.94,11.67.58,22.66.05,32.05-7.58,0,0-18.09,3.46-9.89-10.75,0,0-29.39,23.72-59.15-7.47q-6.48-6.78-12.61-12.16l3.21-2.56q3.6-2.88,7-6.11A96.18,96.18,0,0,0,520,192q5.47-8.07,11.22-16.16a6,6,0,0,1,2.15-2.15q.9-.36,2.7,1.08a18.74,18.74,0,0,0,7.54,3.77,23.82,23.82,0,0,0,4.94.89,33.94,33.94,0,0,0,4.94,0,51.56,51.56,0,0,0,17.78-5.11,71.5,71.5,0,0,0,15.44-10.15,68.56,68.56,0,0,0,10.33-10.86c3.05-4,5.89-8.11,8.53-12.31q2-3.41,3.68-6.82c1.13-2.27,2.18-4.61,3.14-7A70.14,70.14,0,0,0,615.46,116,33.6,33.6,0,0,0,615.64,104.54ZM445.76,228.27c-.11,0-.21-.09-.33-.13l1.52.41C446.56,228.46,446.16,228.39,445.76,228.27Zm30.53-10.78a65.23,65.23,0,0,1-11,7.91c-3.95,2.27-8.2,3.87-12.74,3.59-21.35-1.32-4.22-20.54,3.91-23.82,9.06-3.66,18.05,0,26,5.85C480.51,213.24,478.45,215.41,476.29,217.49ZM597.14,107.77a31,31,0,0,1-1.34,5.84,40.76,40.76,0,0,1-2.43,5.75c-1,1.85-1.79,3.56-2.51,5.11a192.56,192.56,0,0,1-10.42,18.86,150.69,150.69,0,0,1-12.75,17.42,44.39,44.39,0,0,1-6.37,6.19,39.56,39.56,0,0,1-7.63,4.76A16.16,16.16,0,0,1,548.3,173a6,6,0,0,1-4.85-1.8,6.76,6.76,0,0,1-2.33-5.56,13.93,13.93,0,0,1,1.61-5.93q3.24-6.1,6.65-12.12t7.18-11.76q1.44-2,2.78-4.13c.9-1.44,1.83-2.81,2.79-4.13a137.45,137.45,0,0,1,11.31-14.28,59.84,59.84,0,0,1,14-11.4,21.58,21.58,0,0,1,2.33-1.35,8.24,8.24,0,0,1,2.61-.81,4.46,4.46,0,0,1,2.51.36,3.38,3.38,0,0,1,1.71,2.16A12.57,12.57,0,0,1,597.14,107.77Z"/><path class="cls-2" d="M719.44,104.54a23,23,0,0,0-3.59-8.44,11.39,11.39,0,0,0-7.73-4.85,20.08,20.08,0,0,0-9.07.27,30,30,0,0,0-8.35,3.68c-1.19.72-2.33,1.47-3.41,2.25a25.88,25.88,0,0,0-3,2.6q-1.08.9-2.34,2.16a3.73,3.73,0,0,1-2.69,1.25q.9-2.14,1.8-4.94a9,9,0,0,0,.18-5.29,3,3,0,0,0-3.42-2.16c-1.79.12-3.29.24-4.48.36a47.27,47.27,0,0,1-7,.54c-.72,0-1.52,0-2.42-.09a6.31,6.31,0,0,0-2.43.27,2.74,2.74,0,0,0-1.61,1.44A7.6,7.6,0,0,0,659.1,96c-.12.9-.21,1.8-.27,2.69a17.81,17.81,0,0,1-.27,2.25,21.65,21.65,0,0,1-3,7c-1.44,2.16-2.88,4.25-4.31,6.29-1,1.68-2,3.26-3,4.76s-2,3-3,4.58q-5,8.07-9.61,16.25t-9.6,16.25a462.2,462.2,0,0,1-26.94,39.51q-4.39,5.63-9,11.1c-11-7.42-21.52-10.8-32-9.34h0a38.31,38.31,0,0,0-24.66,11.6,14.93,14.93,0,0,0-2.52,2.45,11.49,11.49,0,0,0-2.42,4.85,13.82,13.82,0,0,0,0,7,13.51,13.51,0,0,0,3.14,5.66,16.85,16.85,0,0,0,5.39,3.86,25,25,0,0,0,6.73,2,55.37,55.37,0,0,0,11.85.18c1.68-.24,3.32-.45,4.94-.63a46.93,46.93,0,0,0,4.94-.8,72.35,72.35,0,0,0,30.81-14.13c2.91,2.87,5.55,5.74,7.87,8.24,13.29,14.31,26.41,24.92,46.94,25.94,11.66.58,22.66.05,32-7.58,0,0-18.08,3.46-9.88-10.75,0,0-29.39,23.72-59.16-7.47q-6.58-6.9-12.81-12.34l3-2.38q3.58-2.88,7-6.11A95.62,95.62,0,0,0,623.81,192q5.48-8.07,11.23-16.16a5.9,5.9,0,0,1,2.15-2.15c.6-.24,1.5.12,2.69,1.08a18.78,18.78,0,0,0,7.55,3.77,23.73,23.73,0,0,0,4.93.89,33.94,33.94,0,0,0,4.94,0,51.5,51.5,0,0,0,17.78-5.11,71.57,71.57,0,0,0,15.45-10.15,68.5,68.5,0,0,0,10.32-10.86c3-4,5.9-8.11,8.53-12.31,1.32-2.27,2.54-4.54,3.68-6.82s2.19-4.61,3.14-7A69.11,69.11,0,0,0,719.26,116,33.85,33.85,0,0,0,719.44,104.54Zm-139.35,113a65.72,65.72,0,0,1-11,7.91A26.58,26.58,0,0,1,556.39,229a19.77,19.77,0,0,1-7.41-1,6.34,6.34,0,0,1,1.07.06c-12.58-7.82,4.26-19.19,7.83-21.42a18.09,18.09,0,0,1,2.87-1.49c9-3.62,17.85-.09,25.75,5.65C584.42,213.11,582.3,215.35,580.09,217.49ZM700.94,107.77a30.33,30.33,0,0,1-1.35,5.84,40.7,40.7,0,0,1-2.42,5.75c-1,1.85-1.8,3.56-2.52,5.11a192.47,192.47,0,0,1-10.41,18.86,150.69,150.69,0,0,1-12.75,17.42,44.46,44.46,0,0,1-6.38,6.19,39,39,0,0,1-7.63,4.76A16.1,16.1,0,0,1,652.1,173a6,6,0,0,1-4.85-1.8,6.76,6.76,0,0,1-2.34-5.56,14.08,14.08,0,0,1,1.62-5.93q3.22-6.1,6.64-12.12t7.19-11.76q1.42-2,2.78-4.13c.9-1.44,1.82-2.81,2.78-4.13a136.22,136.22,0,0,1,11.32-14.28,59.58,59.58,0,0,1,14-11.4,21.74,21.74,0,0,1,2.34-1.35,8.1,8.1,0,0,1,2.6-.81,4.48,4.48,0,0,1,2.52.36,3.4,3.4,0,0,1,1.7,2.16A12.43,12.43,0,0,1,700.94,107.77Z"/></g></g></svg>