<svg xmlns="http://www.w3.org/2000/svg" viewBox="0 0 2270.31 1017.26"><defs><style>.cls-1{fill:#309e48;}</style></defs><title>Asset 2</title><g id="Layer_2" data-name="Layer 2"><g id="OBJECT"><path class="cls-1" d="M149.61,792.48C55.62,828.69,0,905.72,0,905.72S85.14,876.21,149.61,792.48Z"/><path class="cls-1" d="M184.46,725.56C76.82,762.86,7.81,843.87,7.81,843.87S105,813.56,184.46,725.56Z"/><path class="cls-1" d="M219.3,658.64C98,697,15.63,782,15.63,782S124.87,750.92,219.3,658.64Z"/><path class="cls-1" d="M254.14,591.72C119.21,631.2,23.44,720.15,23.44,720.15S144.74,688.27,254.14,591.72Z"/><path class="cls-1" d="M289,524.8C140.4,565.37,31.25,658.3,31.25,658.3S164.6,625.63,289,524.8Z"/><path class="cls-1" d="M323.83,457.88C161.6,499.54,39.07,596.44,39.07,596.44S184.46,563,323.83,457.88Z"/><path class="cls-1" d="M358.67,391C182.79,433.71,46.88,534.59,46.88,534.59S204.33,500.34,358.67,391Z"/><path class="cls-1" d="M159.79,796.71c33.78,89.42,9.33,179.43,9.33,179.43S135.9,897.34,159.79,796.71Z"/><path class="cls-1" d="M190,727.87c42,99.62,23.33,201.58,23.33,201.58S172.7,841.75,190,727.87Z"/><path class="cls-1" d="M220.24,659c50.25,109.82,37.31,223.72,37.31,223.72S209.51,786.16,220.24,659Z"/><path class="cls-1" d="M250.46,590.19c58.49,120,51.31,245.86,51.31,245.86S246.31,730.57,250.46,590.19Z"/><path class="cls-1" d="M280.69,521.35c66.72,130.22,65.29,268,65.29,268S283.12,675,280.69,521.35Z"/><path class="cls-1" d="M310.91,452.51c75,140.42,79.29,290.14,79.29,290.14S319.92,619.39,310.91,452.51Z"/><path class="cls-1" d="M341.14,383.66C424.34,534.28,434.41,696,434.41,696S356.73,563.8,341.14,383.66Z"/><path class="cls-1" d="M107.08,892.77l18.11-39.1,18.18-39.06,36.37-78.13,36.49-78.07,36.64-78c12.22-26,24.27-52.07,36.37-78.12s24.53-52,37.22-77.77S352,373,365.12,347.32s26.33-51.22,40.09-76.57l.94.39c-11.08,26.47-22.67,52.74-34.44,78.93S348,402.36,335.83,428.4s-24.59,51.94-37.31,77.73S273,557.68,260.37,583.51L222.47,661l-38,77.43-38.17,77.38L127.18,854.5,108,893.16Z"/><path class="cls-1" d="M133.42,837.89c-71.12,78.83-84.06,170.49-84.06,170.49S115.51,939.63,133.42,837.89Z"/><path class="cls-1" d="M711.72,779.36C644.25,854.15,629.46,948,629.46,948S692.07,883.19,711.72,779.36Z"/><path class="cls-1" d="M712.54,703.91C633.4,785.85,608.47,889.3,608.47,889.3S681.46,818.33,712.54,703.91Z"/><path class="cls-1" d="M713.37,628.47c-90.83,89.08-125.9,202.12-125.9,202.12S670.86,753.47,713.37,628.47Z"/><path class="cls-1" d="M714.2,553C611.69,649.24,566.48,771.89,566.48,771.89S660.26,688.61,714.2,553Z"/><path class="cls-1" d="M715,477.59C600.83,580.94,545.49,713.18,545.49,713.18S649.66,623.75,715,477.59Z"/><path class="cls-1" d="M715.85,402.15C590,512.64,524.49,654.47,524.49,654.47S639.05,558.9,715.85,402.15Z"/><path class="cls-1" d="M716.68,326.71C579.12,444.34,503.5,595.77,503.5,595.77S628.45,494,716.68,326.71Z"/><path class="cls-1" d="M722.71,778.54c70.55,64.48,89.44,155.82,89.44,155.82S746.89,879.09,722.71,778.54Z"/><path class="cls-1" d="M718.55,703.47c82.51,69.86,111.93,169.25,111.93,169.25S754.59,812.87,718.55,703.47Z"/><path class="cls-1" d="M714.38,628.4c94.47,75.23,134.43,182.68,134.43,182.68S762.28,746.64,714.38,628.4Z"/><path class="cls-1" d="M710.22,553.33c106.43,80.61,156.91,196.1,156.91,196.1S770,680.42,710.22,553.33Z"/><path class="cls-1" d="M706.06,478.26c118.39,86,179.4,209.53,179.4,209.53S777.68,614.19,706.06,478.26Z"/><path class="cls-1" d="M701.9,403.19c130.35,91.36,201.89,223,201.89,223S785.38,548,701.9,403.19Z"/><path class="cls-1" d="M697.74,328.12C840,424.86,922.12,564.51,922.12,564.51S793.08,481.75,697.74,328.12Z"/><path class="cls-1" d="M719.12,888,717.6,845l-1.44-43.06-2.88-86.13-2.75-86.14-2.59-86.15c-.86-28.72-1.89-57.42-2.87-86.13s-1.62-57.44-2-86.19-.51-57.53-.4-86.32.33-57.58,1.14-86.43l1-.07c2.09,28.62,3.63,57.29,5,86s2.47,57.38,3.41,86.09,1.55,57.45,1.86,86.2.53,57.53.95,86.28l1.23,86.25,1.07,86.26.94,86.28.47,43.13.39,43.15Z"/><path class="cls-1" d="M717.8,827.18c-27.79,102.47,2.11,190.08,2.11,190.08S747.83,926,717.8,827.18Z"/><path class="cls-1" d="M1549.94,581c-67.47,74.79-82.26,168.65-82.26,168.65S1530.29,684.83,1549.94,581Z"/><path class="cls-1" d="M1550.76,505.56c-79.15,81.93-104.07,185.38-104.07,185.38S1519.68,620,1550.76,505.56Z"/><path class="cls-1" d="M1551.59,430.12c-90.83,89.07-125.9,202.11-125.9,202.11S1509.08,555.11,1551.59,430.12Z"/><path class="cls-1" d="M1552.42,354.67C1449.9,450.89,1404.7,573.53,1404.7,573.53S1498.48,490.25,1552.42,354.67Z"/><path class="cls-1" d="M1553.24,279.23c-114.19,103.36-169.53,235.59-169.53,235.59S1487.87,425.4,1553.24,279.23Z"/><path class="cls-1" d="M1554.07,203.79c-125.88,110.49-191.36,252.33-191.36,252.33S1477.27,360.54,1554.07,203.79Z"/><path class="cls-1" d="M1554.89,128.35C1417.34,246,1341.72,397.41,1341.72,397.41S1466.67,295.68,1554.89,128.35Z"/><path class="cls-1" d="M1560.93,580.18c70.55,64.48,89.44,155.82,89.44,155.82S1585.11,680.73,1560.93,580.18Z"/><path class="cls-1" d="M1556.77,505.11C1639.28,575,1668.7,674.36,1668.7,674.36S1592.81,614.51,1556.77,505.11Z"/><path class="cls-1" d="M1552.6,430C1647.07,505.27,1687,612.72,1687,612.72S1600.5,548.29,1552.6,430Z"/><path class="cls-1" d="M1548.44,355c106.43,80.61,156.91,196.11,156.91,196.11S1608.2,482.06,1548.44,355Z"/><path class="cls-1" d="M1544.28,279.9c118.39,86,179.4,209.53,179.4,209.53S1615.9,415.84,1544.28,279.9Z"/><path class="cls-1" d="M1540.12,204.83c130.34,91.36,201.89,223,201.89,223S1623.6,349.61,1540.12,204.83Z"/><path class="cls-1" d="M1536,129.76c142.3,96.74,224.37,236.39,224.37,236.39S1631.29,283.39,1536,129.76Z"/><path class="cls-1" d="M1557.34,689.68l-1.52-43-1.44-43.07-2.88-86.13-2.75-86.14-2.59-86.15c-.86-28.71-1.9-57.42-2.88-86.12s-1.61-57.45-2-86.2-.51-57.53-.41-86.32.34-57.58,1.15-86.42l1-.08c2.09,28.63,3.63,57.29,5,86s2.47,57.38,3.41,86.09,1.55,57.45,1.86,86.21.53,57.52,1,86.27l1.22,86.25,1.08,86.27.94,86.27.47,43.14.38,43.14Z"/><path class="cls-1" d="M1556,628.82c-27.8,102.47,2.11,190.08,2.11,190.08S1586.05,727.67,1556,628.82Z"/><path class="cls-1" d="M1180.59,621.2c88.64,47.83,134.05,131.3,134.05,131.3S1233.92,712.43,1180.59,621.2Z"/><path class="cls-1" d="M1154.51,550.41c102,50.64,160.22,139.74,160.22,139.74S1222.16,647.77,1154.51,550.41Z"/><path class="cls-1" d="M1128.43,479.61c115.44,53.45,186.39,148.19,186.39,148.19S1210.4,583.11,1128.43,479.61Z"/><path class="cls-1" d="M1102.35,408.82c128.84,56.26,212.56,156.64,212.56,156.64S1198.64,518.46,1102.35,408.82Z"/><path class="cls-1" d="M1076.27,338C1218.51,397.09,1315,503.11,1315,503.11S1186.87,453.8,1076.27,338Z"/><path class="cls-1" d="M1050.19,267.22c155.64,61.89,264.9,173.54,264.9,173.54S1175.11,389.14,1050.19,267.22Z"/><path class="cls-1" d="M1024.11,196.43c169,64.69,291.07,182,291.07,182S1163.35,324.48,1024.11,196.43Z"/><path class="cls-1" d="M1170,624.11c-44.84,84.41-32,176.8-32,176.8S1180.9,727,1170,624.11Z"/><path class="cls-1" d="M1148.71,552C1094.4,645.48,1100,749,1100,749S1151.44,667.15,1148.71,552Z"/><path class="cls-1" d="M1127.45,479.88c-63.77,102.56-65.37,217.18-65.37,217.18S1122,607.34,1127.45,479.88Z"/><path class="cls-1" d="M1106.2,407.76c-73.24,111.64-82.06,237.37-82.06,237.37S1092.52,547.53,1106.2,407.76Z"/><path class="cls-1" d="M1084.94,335.64c-82.69,120.71-98.74,257.57-98.74,257.57S1063.06,487.73,1084.94,335.64Z"/><path class="cls-1" d="M1063.69,263.53C971.53,393.31,948.26,541.28,948.26,541.28S1033.6,427.92,1063.69,263.53Z"/><path class="cls-1" d="M1042.43,191.41c-101.62,138.86-132.11,298-132.11,298S1004.13,368.11,1042.43,191.41Z"/><path class="cls-1" d="M1210.06,726.08l-13-41.08L1184,644l-26.17-82.11-26.3-82.07-26.45-82c-8.82-27.34-17.47-54.73-26.18-82.11s-17.74-54.65-27.06-81.86-18.81-54.36-28.56-81.45-19.62-54.14-30.06-81l-1,.27c7.63,27.67,15.8,55.19,24.15,82.66s16.92,54.88,25.66,82.24,17.81,54.64,27.16,81.84,18.79,54.37,28,81.6L1125,481.55l27.92,81.63,28,81.59,14,40.8,14.1,40.77Z"/><path class="cls-1" d="M1190.9,668.3c60.55,87.21,61.76,179.77,61.76,179.77S1195.76,771.49,1190.9,668.3Z"/><path class="cls-1" d="M1936.79,714.83c13.66,99.8-27,185.7-27,185.7S1894.59,811.71,1936.79,714.83Z"/><path class="cls-1" d="M1978.57,652c19.3,112.27-18.33,211.81-18.33,211.81S1939.86,764.07,1978.57,652Z"/><path class="cls-1" d="M2020.36,589.19c24.93,124.75-9.72,237.93-9.72,237.93S1985.13,716.44,2020.36,589.19Z"/><path class="cls-1" d="M2062.14,526.38c30.57,137.22-1.1,264-1.1,264S2030.4,668.8,2062.14,526.38Z"/><path class="cls-1" d="M2103.92,463.56c36.21,149.7,7.52,290.15,7.52,290.15S2075.68,621.16,2103.92,463.56Z"/><path class="cls-1" d="M2145.71,400.74C2187.55,562.92,2161.83,717,2161.83,717S2121,573.52,2145.71,400.74Z"/><path class="cls-1" d="M2187.49,337.92c47.48,174.66,24.74,342.38,24.74,342.38S2166.22,525.89,2187.49,337.92Z"/><path class="cls-1" d="M1928.17,708c-94.61,13.58-161.65,78.44-161.65,78.44S1851.58,777.47,1928.17,708Z"/><path class="cls-1" d="M1973.87,648.26c-107.53,11.3-187.79,76.89-187.79,76.89S1882.49,718.4,1973.87,648.26Z"/><path class="cls-1" d="M2019.56,588.56c-120.43,9-213.93,75.32-213.93,75.32S1913.41,659.33,2019.56,588.56Z"/><path class="cls-1" d="M2065.26,528.86c-133.34,6.71-240.08,73.76-240.08,73.76S1944.33,600.26,2065.26,528.86Z"/><path class="cls-1" d="M2111,469.15c-146.26,4.43-266.23,72.2-266.23,72.2S1975.24,541.19,2111,469.15Z"/><path class="cls-1" d="M2156.65,409.45c-159.16,2.14-292.37,70.64-292.37,70.64S2006.16,482.12,2156.65,409.45Z"/><path class="cls-1" d="M2202.35,349.75c-172.07-.15-318.52,69.07-318.52,69.07S2037.07,423.06,2202.35,349.75Z"/><path class="cls-1" d="M1869.49,800.49,1895,765.76,1920.42,731l50.86-69.56L2022,591.77,2072.68,522q25.31-34.87,50.86-69.57t50.14-70.14q24.69-35.37,48.92-71.11c16.15-23.83,32.14-47.78,47.71-72.08l-.8-.63c-17.84,22.48-35.24,45.31-52.5,68.26s-34.34,46-51.28,69.24-33.61,46.61-50.06,70.2-32.82,47.25-49.35,70.77l-49.56,70.6-49.45,70.69L1918,729l-24.67,35.39-24.61,35.44Z"/><path class="cls-1" d="M1904.84,750.94c-34.71,100.34-108.74,155.92-108.74,155.92S1824.38,815.73,1904.84,750.94Z"/></g></g></svg>