<svg xmlns="http://www.w3.org/2000/svg" viewBox="0 0 83.78 83.78"><defs><style>.cls-1{fill:#f69222;}.cls-2{fill:#fff;}</style></defs><title>Asset 3</title><g id="Layer_2" data-name="Layer 2"><g id="OBJECT"><path class="cls-1" d="M45.89,12.69a10.53,10.53,0,1,0-20.63-.08,10.39,10.39,0,0,0,1.65,3.9A92.38,92.38,0,0,0,34.62,28a16.15,16.15,0,0,0-2.83,1.91,91.29,91.29,0,0,0-7.72-11.49,10.41,10.41,0,0,0-3-3A10.53,10.53,0,0,0,9.42,33a10.65,10.65,0,0,0,3.93,1.59,94.17,94.17,0,0,0,13.59,2.67,15.54,15.54,0,0,0-.67,3.35A91.81,91.81,0,0,0,12.7,37.89a10.53,10.53,0,1,0,3.81,19A92.33,92.33,0,0,0,28,49.16,16.54,16.54,0,0,0,29.91,52,92.28,92.28,0,0,0,18.42,59.7,10.53,10.53,0,1,0,33,74.35a10.4,10.4,0,0,0,1.58-3.93,91.47,91.47,0,0,0,2.68-13.58,15.52,15.52,0,0,0,3.35.66,91.69,91.69,0,0,0-2.67,13.58,10.53,10.53,0,1,0,20.63.09,10.29,10.29,0,0,0-1.66-3.91,93.08,93.08,0,0,0-7.7-11.49A15.57,15.57,0,0,0,52,53.87,92.28,92.28,0,0,0,59.7,65.36,10.53,10.53,0,1,0,70.42,49.24a91.41,91.41,0,0,0-13.58-2.67,15.52,15.52,0,0,0,.66-3.35,90.93,90.93,0,0,0,13.58,2.66,10.43,10.43,0,0,0,4.24,0,10.53,10.53,0,1,0-8.06-19,93.13,93.13,0,0,0-11.49,7.71,15.12,15.12,0,0,0-1.91-2.83,90.66,90.66,0,0,0,11.5-7.72A10.53,10.53,0,1,0,49.24,13.35a91.53,91.53,0,0,0-2.67,13.59,15.54,15.54,0,0,0-3.35-.67A91.69,91.69,0,0,0,45.89,12.69Z"/><circle class="cls-2" cx="41.89" cy="41.89" r="16.58" transform="translate(-11.17 68.24) rotate(-71.41)"/></g></g></svg>